<svg width="83" height="24" viewBox="0 0 83 24" fill="none" xmlns="http://www.w3.org/2000/svg">
<path d="M82.3906 24H0V0H82.3906V24Z" stroke="#E5E7EB"/>
<path d="M23.7969 6.63281L20.0312 17H18.4922L22.8281 5.625H23.8203L23.7969 6.63281ZM26.9531 17L23.1797 6.63281L23.1562 5.625H24.1484L28.5 17H26.9531ZM26.7578 12.7891V14.0234H20.3672V12.7891H26.7578ZM35.1328 15.3594V5H36.5859V17H35.2578L35.1328 15.3594ZM29.4453 12.8672V12.7031C29.4453 12.0573 29.5234 11.4714 29.6797 10.9453C29.8411 10.4141 30.0677 9.95833 30.3594 9.57812C30.6562 9.19792 31.0078 8.90625 31.4141 8.70312C31.8255 8.49479 32.2839 8.39062 32.7891 8.39062C33.3203 8.39062 33.7839 8.48438 34.1797 8.67188C34.5807 8.85417 34.9193 9.1224 35.1953 9.47656C35.4766 9.82552 35.6979 10.2474 35.8594 10.7422C36.0208 11.237 36.1328 11.7969 36.1953 12.4219V13.1406C36.138 13.7604 36.026 14.3177 35.8594 14.8125C35.6979 15.3073 35.4766 15.7292 35.1953 16.0781C34.9193 16.4271 34.5807 16.6953 34.1797 16.8828C33.7786 17.0651 33.3099 17.1562 32.7734 17.1562C32.2786 17.1562 31.8255 17.0495 31.4141 16.8359C31.0078 16.6224 30.6562 16.3229 30.3594 15.9375C30.0677 15.5521 29.8411 15.099 29.6797 14.5781C29.5234 14.0521 29.4453 13.4818 29.4453 12.8672ZM30.8984 12.7031V12.8672C30.8984 13.2891 30.9401 13.6849 31.0234 14.0547C31.112 14.4245 31.2474 14.75 31.4297 15.0312C31.612 15.3125 31.8438 15.5339 32.125 15.6953C32.4062 15.8516 32.7422 15.9297 33.1328 15.9297C33.612 15.9297 34.0052 15.8281 34.3125 15.625C34.625 15.4219 34.875 15.1536 35.0625 14.8203C35.25 14.487 35.3958 14.125 35.5 13.7344V11.8516C35.4375 11.5651 35.3464 11.2891 35.2266 11.0234C35.112 10.7526 34.9609 10.513 34.7734 10.3047C34.5911 10.0911 34.3646 9.92188 34.0938 9.79688C33.8281 9.67188 33.513 9.60938 33.1484 9.60938C32.7526 9.60938 32.4115 9.69271 32.125 9.85938C31.8438 10.0208 31.612 10.2448 31.4297 10.5312C31.2474 10.8125 31.112 11.1406 31.0234 11.5156C30.9401 11.8854 30.8984 12.2812 30.8984 12.7031ZM44.1641 15.3594V5H45.6172V17H44.2891L44.1641 15.3594ZM38.4766 12.8672V12.7031C38.4766 12.0573 38.5547 11.4714 38.7109 10.9453C38.8724 10.4141 39.099 9.95833 39.3906 9.57812C39.6875 9.19792 40.0391 8.90625 40.4453 8.70312C40.8568 8.49479 41.3151 8.39062 41.8203 8.39062C42.3516 8.39062 42.8151 8.48438 43.2109 8.67188C43.612 8.85417 43.9505 9.1224 44.2266 9.47656C44.5078 9.82552 44.7292 10.2474 44.8906 10.7422C45.0521 11.237 45.1641 11.7969 45.2266 12.4219V13.1406C45.1693 13.7604 45.0573 14.3177 44.8906 14.8125C44.7292 15.3073 44.5078 15.7292 44.2266 16.0781C43.9505 16.4271 43.612 16.6953 43.2109 16.8828C42.8099 17.0651 42.3411 17.1562 41.8047 17.1562C41.3099 17.1562 40.8568 17.0495 40.4453 16.8359C40.0391 16.6224 39.6875 16.3229 39.3906 15.9375C39.099 15.5521 38.8724 15.099 38.7109 14.5781C38.5547 14.0521 38.4766 13.4818 38.4766 12.8672ZM39.9297 12.7031V12.8672C39.9297 13.2891 39.9714 13.6849 40.0547 14.0547C40.1432 14.4245 40.2786 14.75 40.4609 15.0312C40.6432 15.3125 40.875 15.5339 41.1562 15.6953C41.4375 15.8516 41.7734 15.9297 42.1641 15.9297C42.6432 15.9297 43.0365 15.8281 43.3438 15.625C43.6562 15.4219 43.9062 15.1536 44.0938 14.8203C44.2812 14.487 44.4271 14.125 44.5312 13.7344V11.8516C44.4688 11.5651 44.3776 11.2891 44.2578 11.0234C44.1432 10.7526 43.9922 10.513 43.8047 10.3047C43.6224 10.0911 43.3958 9.92188 43.125 9.79688C42.8594 9.67188 42.5443 9.60938 42.1797 9.60938C41.7839 9.60938 41.4427 9.69271 41.1562 9.85938C40.875 10.0208 40.6432 10.2448 40.4609 10.5312C40.2786 10.8125 40.1432 11.1406 40.0547 11.5156C39.9714 11.8854 39.9297 12.2812 39.9297 12.7031ZM60.8047 5.625V17H59.2891L53.5625 8.22656V17H52.0547V5.625H53.5625L59.3125 14.4219V5.625H60.8047ZM66.7656 17.1562C66.1771 17.1562 65.6432 17.0573 65.1641 16.8594C64.6901 16.6562 64.2812 16.3724 63.9375 16.0078C63.599 15.6432 63.3385 15.2109 63.1562 14.7109C62.974 14.2109 62.8828 13.6641 62.8828 13.0703V12.7422C62.8828 12.0547 62.9844 11.4427 63.1875 10.9062C63.3906 10.3646 63.6667 9.90625 64.0156 9.53125C64.3646 9.15625 64.7604 8.8724 65.2031 8.67969C65.6458 8.48698 66.1042 8.39062 66.5781 8.39062C67.1823 8.39062 67.7031 8.49479 68.1406 8.70312C68.5833 8.91146 68.9453 9.20312 69.2266 9.57812C69.5078 9.94792 69.7161 10.3854 69.8516 10.8906C69.987 11.3906 70.0547 11.9375 70.0547 12.5312V13.1797H63.7422V12H68.6094V11.8906C68.5885 11.5156 68.5104 11.151 68.375 10.7969C68.2448 10.4427 68.0365 10.151 67.75 9.92188C67.4635 9.69271 67.0729 9.57812 66.5781 9.57812C66.25 9.57812 65.9479 9.64844 65.6719 9.78906C65.3958 9.92448 65.1589 10.1276 64.9609 10.3984C64.763 10.6693 64.6094 11 64.5 11.3906C64.3906 11.7812 64.3359 12.2318 64.3359 12.7422V13.0703C64.3359 13.4714 64.3906 13.849 64.5 14.2031C64.6146 14.5521 64.7786 14.8594 64.9922 15.125C65.2109 15.3906 65.474 15.599 65.7812 15.75C66.0938 15.901 66.4479 15.9766 66.8438 15.9766C67.3542 15.9766 67.7865 15.8724 68.1406 15.6641C68.4948 15.4557 68.8047 15.1771 69.0703 14.8281L69.9453 15.5234C69.763 15.7995 69.5312 16.0625 69.25 16.3125C68.9688 16.5625 68.6224 16.7656 68.2109 16.9219C67.8047 17.0781 67.3229 17.1562 66.7656 17.1562ZM73.8828 15.5L76.0547 8.54688H77.0078L76.8203 9.92969L74.6094 17H73.6797L73.8828 15.5ZM72.4219 8.54688L74.2734 15.5781L74.4062 17H73.4297L70.9766 8.54688H72.4219ZM79.0859 15.5234L80.8516 8.54688H82.2891L79.8359 17H78.8672L79.0859 15.5234ZM77.2188 8.54688L79.3438 15.3828L79.5859 17H78.6641L76.3906 9.91406L76.2031 8.54688H77.2188Z" fill="#F97316"/>
<g clip-path="url(#clip0_2069_3877)">
<g clip-path="url(#clip1_2069_3877)">
<path d="M11.9688 5.5C11.9688 4.94687 11.5219 4.5 10.9688 4.5C10.4156 4.5 9.96875 4.94687 9.96875 5.5V10H5.46875C4.91562 10 4.46875 10.4469 4.46875 11C4.46875 11.5531 4.91562 12 5.46875 12H9.96875V16.5C9.96875 17.0531 10.4156 17.5 10.9688 17.5C11.5219 17.5 11.9688 17.0531 11.9688 16.5V12H16.4688C17.0219 12 17.4688 11.5531 17.4688 11C17.4688 10.4469 17.0219 10 16.4688 10H11.9688V5.5Z" fill="#F97316"/>
</g>
</g>
<defs>
<clipPath id="clip0_2069_3877">
<rect width="14" height="16" fill="white" transform="translate(3.96875 3)"/>
</clipPath>
<clipPath id="clip1_2069_3877">
<path d="M3.96875 3H17.9688V19H3.96875V3Z" fill="white"/>
</clipPath>
</defs>
</svg>
