<svg width="38" height="38" viewBox="0 0 38 38" fill="none" xmlns="http://www.w3.org/2000/svg">
<path d="M30.6375 15.8963C29.5608 10.4338 24.7633 6.33301 19 6.33301C14.4242 6.33301 10.45 8.92967 8.47083 12.7297C3.705 13.2363 0 17.2738 0 22.1663C0 27.4072 4.25917 31.6663 9.5 31.6663H30.0833C34.4533 31.6663 38 28.1197 38 23.7497C38 19.5697 34.7542 16.1813 30.6375 15.8963ZM30.0833 28.4997H9.5C6.00083 28.4997 3.16667 25.6655 3.16667 22.1663C3.16667 18.9205 5.58917 16.213 8.80333 15.8805L10.4975 15.7063L11.2892 14.2022C12.7933 11.3047 15.7383 9.49967 19 9.49967C23.1483 9.49967 26.7267 12.4447 27.5342 16.5138L28.0092 18.8888L30.4317 19.063C32.9017 19.2213 34.8333 21.2955 34.8333 23.7497C34.8333 26.3622 32.6958 28.4997 30.0833 28.4997ZM12.6667 20.583H16.7042V25.333H21.2958V20.583H25.3333L19 14.2497L12.6667 20.583Z" fill="#A3A3A3"/>
</svg>
