<svg width="12" height="16" viewBox="0 0 12 16" fill="none" xmlns="http://www.w3.org/2000/svg">
<path d="M10.5 15.8333C10.8978 15.8333 11.2794 15.6665 11.5607 15.3696C11.842 15.0727 12 14.6699 12 14.25V4.75L7.5 0H1.5C1.10218 0 0.720644 0.166815 0.43934 0.463748C0.158035 0.76068 0 1.16341 0 1.58333V14.25C0 14.6699 0.158035 15.0727 0.43934 15.3696C0.720644 15.6665 1.10218 15.8333 1.5 15.8333H10.5ZM6.75 1.58333L10.5 5.54167H6.75V1.58333ZM2.25 4.75H4.5V6.33333H2.25V4.75ZM2.25 7.91667H9.75V9.5H2.25V7.91667ZM2.25 11.0833H9.75V12.6667H2.25V11.0833Z" fill="white"/>
</svg>
