<svg width="24" height="24" viewBox="0 0 24 24" fill="none" xmlns="http://www.w3.org/2000/svg">
<path fill-rule="evenodd" clip-rule="evenodd" d="M12 18.8578C15.8045 18.8578 18.8571 15.835 18.8571 12.0316C18.8571 8.22698 15.8045 5.14355 12 5.14355C8.19539 5.14355 5.14282 8.22698 5.14282 12.0316C5.14282 15.835 8.19539 18.8578 12 18.8578Z" stroke="#5F6368" stroke-linecap="round" stroke-linejoin="round"/>
<path d="M12 16C14.2091 16 16 14.2091 16 12C16 9.79086 14.2091 8 12 8C9.79086 8 8 9.79086 8 12C8 14.2091 9.79086 16 12 16Z" fill="#5F6368"/>
<path d="M2.85718 12.0003H5.14289M18.8572 12.0003H21.1429M12 2.85742V5.14314M12 18.8574V21.1431" stroke="#5F6368" stroke-linecap="round" stroke-linejoin="round"/>
</svg>
