<svg width="24" height="24" viewBox="0 0 24 24" fill="none" xmlns="http://www.w3.org/2000/svg">
<path d="M11.4089 0.119531L0.908942 4.61953C0.252692 4.90078 -0.112933 5.60391 0.0323791 6.29766C0.177692 6.99141 0.787067 7.49766 1.49957 7.49766V7.87266C1.49957 8.49609 2.00113 8.99766 2.62457 8.99766H21.3746C21.998 8.99766 22.4996 8.49609 22.4996 7.87266V7.49766C23.2121 7.49766 23.8261 6.99609 23.9668 6.29766C24.1074 5.59922 23.7418 4.89609 23.0902 4.61953L12.5902 0.119531C12.2152 -0.0398437 11.7839 -0.0398437 11.4089 0.119531ZM5.99957 10.4977H2.99957V19.6992C2.97144 19.7133 2.94332 19.732 2.91519 19.7508L0.665192 21.2508C0.116754 21.6164 -0.131683 22.3008 0.0605041 22.9336C0.252692 23.5664 0.838629 23.9977 1.49957 23.9977H22.4996C23.1605 23.9977 23.7418 23.5664 23.9339 22.9336C24.1261 22.3008 23.8824 21.6164 23.3293 21.2508L21.0793 19.7508C21.0511 19.732 21.023 19.718 20.9949 19.6992V10.4977H17.9996V19.4977H16.1246V10.4977H13.1246V19.4977H10.8746V10.4977H7.87457V19.4977H5.99957V10.4977ZM11.9996 2.99766C12.3974 2.99766 12.7789 3.15569 13.0602 3.437C13.3415 3.7183 13.4996 4.09983 13.4996 4.49766C13.4996 4.89548 13.3415 5.27701 13.0602 5.55832C12.7789 5.83962 12.3974 5.99766 11.9996 5.99766C11.6017 5.99766 11.2202 5.83962 10.9389 5.55832C10.6576 5.27701 10.4996 4.89548 10.4996 4.49766C10.4996 4.09983 10.6576 3.7183 10.9389 3.437C11.2202 3.15569 11.6017 2.99766 11.9996 2.99766Z" fill="#F97316"/>
</svg>
