<svg width="12" height="11" viewBox="0 0 12 11" fill="none" xmlns="http://www.w3.org/2000/svg">
<path d="M2.89698 8.42109C3.19933 8.20078 3.59073 8.14453 3.9423 8.27109C4.56339 8.49609 5.25948 8.625 6.00011 8.625C8.92277 8.625 10.8751 6.73828 10.8751 4.875C10.8751 3.01172 8.92277 1.125 6.00011 1.125C3.07745 1.125 1.12511 3.01172 1.12511 4.875C1.12511 5.625 1.41573 6.34688 1.96183 6.96563C2.16339 7.19297 2.26183 7.49297 2.23839 7.79766C2.20558 8.22188 2.1048 8.61094 1.97355 8.95547C2.37198 8.77031 2.70245 8.56406 2.89698 8.42344V8.42109ZM0.496984 9.37266C0.539172 9.30937 0.579015 9.24609 0.616515 9.18281C0.85089 8.79375 1.07355 8.28281 1.11808 7.70859C0.414953 6.90937 0.000109104 5.93203 0.000109104 4.875C0.000109104 2.18203 2.68605 0 6.00011 0C9.31417 0 12.0001 2.18203 12.0001 4.875C12.0001 7.56797 9.31417 9.75 6.00011 9.75C5.13058 9.75 4.30558 9.6 3.56027 9.33047C3.28136 9.53438 2.82667 9.81328 2.28761 10.0477C1.9337 10.2023 1.53058 10.343 1.11339 10.425C1.09464 10.4297 1.07589 10.432 1.05714 10.4367C0.954015 10.4555 0.853234 10.4719 0.747765 10.4813C0.743078 10.4813 0.736047 10.4836 0.731359 10.4836C0.611828 10.4953 0.492297 10.5023 0.372765 10.5023C0.220422 10.5023 0.0844841 10.4109 0.0258904 10.2703C-0.0327034 10.1297 0.000109099 9.97031 0.105578 9.8625C0.201672 9.76406 0.28839 9.65859 0.370422 9.54609C0.410265 9.49219 0.447765 9.43828 0.482922 9.38437C0.485265 9.37969 0.487609 9.37734 0.489953 9.37266H0.496984Z" fill="#5A5A5A"/>
</svg>
