<svg width="14" height="11" viewBox="0 0 14 11" fill="none" xmlns="http://www.w3.org/2000/svg">
<path d="M6.74941 1.125C5.22129 1.125 3.96504 1.81875 3.00176 2.71172C2.09941 3.55078 1.47598 4.54688 1.15723 5.25C1.47598 5.95312 2.09941 6.94922 2.99941 7.78828C3.96504 8.68125 5.22129 9.375 6.74941 9.375C8.27754 9.375 9.53379 8.68125 10.4971 7.78828C11.3994 6.94922 12.0229 5.95312 12.3416 5.25C12.0229 4.54688 11.3994 3.55078 10.4994 2.71172C9.53379 1.81875 8.27754 1.125 6.74941 1.125ZM2.23535 1.88906C3.33926 0.8625 4.85566 0 6.74941 0C8.64316 0 10.1596 0.8625 11.2635 1.88906C12.3604 2.90859 13.0939 4.125 13.4432 4.96172C13.5205 5.14687 13.5205 5.35312 13.4432 5.53828C13.0939 6.375 12.3604 7.59375 11.2635 8.61094C10.1596 9.6375 8.64316 10.5 6.74941 10.5C4.85566 10.5 3.33926 9.6375 2.23535 8.61094C1.13848 7.59375 0.404883 6.375 0.0580078 5.53828C-0.0193359 5.35312 -0.0193359 5.14687 0.0580078 4.96172C0.404883 4.125 1.13848 2.90625 2.23535 1.88906ZM6.74941 7.125C7.78535 7.125 8.62441 6.28594 8.62441 5.25C8.62441 4.21406 7.78535 3.375 6.74941 3.375C6.73301 3.375 6.71895 3.375 6.70254 3.375C6.73301 3.49453 6.74941 3.62109 6.74941 3.75C6.74941 4.57734 6.07676 5.25 5.24941 5.25C5.12051 5.25 4.99395 5.23359 4.87441 5.20312C4.87441 5.21953 4.87441 5.23359 4.87441 5.25C4.87441 6.28594 5.71348 7.125 6.74941 7.125ZM6.74941 2.25C7.54506 2.25 8.30813 2.56607 8.87074 3.12868C9.43334 3.69129 9.74941 4.45435 9.74941 5.25C9.74941 6.04565 9.43334 6.80871 8.87074 7.37132C8.30813 7.93393 7.54506 8.25 6.74941 8.25C5.95376 8.25 5.1907 7.93393 4.62809 7.37132C4.06548 6.80871 3.74941 6.04565 3.74941 5.25C3.74941 4.45435 4.06548 3.69129 4.62809 3.12868C5.1907 2.56607 5.95376 2.25 6.74941 2.25Z" fill="#5A5A5A"/>
</svg>
