<svg width="60" height="73" viewBox="0 0 60 73" fill="none" xmlns="http://www.w3.org/2000/svg">
<path d="M36.5469 1.66797H23.4536C19.9764 1.66797 17.1573 4.48697 17.1573 7.96422V13.3876H20.8779V7.96422C20.8779 6.54756 22.0369 5.38848 23.4536 5.38848H36.5469C37.9636 5.38848 39.1227 6.54756 39.1227 7.96422V13.3876H42.8432V7.96422C42.8432 4.48697 40.0242 1.66797 36.5469 1.66797Z" fill="#F59A2E"/>
<path opacity="0.5" d="M21.0067 8.49414H17.1861V10.3544H21.0067V8.49414Z" fill="#F59A2E"/>
<path opacity="0.5" d="M42.8432 8.49414H39.0226V10.3544H42.8432V8.49414Z" fill="#F59A2E"/>
<path opacity="0.46" d="M36.5469 1.66797H23.4536C19.9764 1.66797 17.1573 4.48697 17.1573 7.96422V9.29502C17.1573 5.81777 19.9764 2.99877 23.4536 2.99877H36.5469C40.0242 2.99877 42.8432 5.81777 42.8432 9.29502V7.96422C42.8432 4.48697 40.0242 1.66797 36.5469 1.66797Z" fill="#FFAF66"/>
<path d="M36.5469 1.66797H23.4536C19.9764 1.66797 17.1573 4.48697 17.1573 7.96422V13.3876H20.8779V7.96422C20.8779 6.54756 22.0369 5.38848 23.4536 5.38848H36.5469C37.9636 5.38848 39.1227 6.54756 39.1227 7.96422V13.3876H42.8432V7.96422C42.8432 4.48697 40.0242 1.66797 36.5469 1.66797Z" stroke="#013711" stroke-width="1.43097" stroke-miterlimit="10" stroke-linecap="round" stroke-linejoin="round"/>
<path d="M10.6035 64.6172H6.96881C4.10688 64.6172 1.71717 62.3992 1.53114 59.5515C1.01599 51.7098 1.84596 45.5853 3.56312 40.8488C4.49324 38.2874 8.14221 38.2874 9.07234 40.8488C11.1472 46.5584 11.92 54.2856 10.6035 64.6172Z" fill="#F59A2E"/>
<path opacity="0.2" d="M9.35879 40.8483C8.629 38.8164 6.18205 38.4014 4.73677 39.5891L5.15175 56.1883C5.20899 58.4778 4.17869 60.5384 2.53308 61.8835C3.47752 63.5292 5.25192 64.631 7.26958 64.631H10.9042C12.2064 54.2851 11.4337 46.5579 9.35879 40.8483Z" fill="#F59A2E"/>
<path d="M10.6035 64.6172H6.96881C4.10688 64.6172 1.71717 62.3992 1.53114 59.5515C1.01599 51.7098 1.84596 45.5853 3.56312 40.8488C4.49324 38.2874 8.14221 38.2874 9.07234 40.8488C11.1472 46.5584 11.92 54.2856 10.6035 64.6172Z" stroke="#013711" stroke-width="1.43097" stroke-miterlimit="10" stroke-linecap="round" stroke-linejoin="round"/>
<path d="M49.3968 63.6289H53.0315C55.8934 63.6289 58.2831 61.4109 58.4691 58.5632C58.9843 50.7216 58.1543 44.597 56.4372 39.8605C55.507 37.2991 51.8581 37.2991 50.9279 39.8605C48.853 45.5701 48.0946 53.2973 49.3968 63.6289Z" fill="#F59A2E"/>
<path opacity="0.2" d="M54.8633 55.0289L55.264 38.5871C53.8187 37.3994 51.3718 37.8144 50.642 39.8464C48.5671 45.5703 47.8087 53.2975 49.1109 63.629H52.7455C54.8061 63.629 56.6234 62.4843 57.5392 60.7671C55.865 59.422 54.8061 57.3471 54.8633 55.0289Z" fill="#F59A2E"/>
<path d="M49.3968 63.6289H53.0315C55.8934 63.6289 58.2831 61.4109 58.4691 58.5632C58.9843 50.7216 58.1543 44.597 56.4372 39.8605C55.507 37.2991 51.8581 37.2991 50.9279 39.8605C48.853 45.5701 48.0946 53.2973 49.3968 63.6289Z" stroke="#013711" stroke-width="1.43097" stroke-miterlimit="10" stroke-linecap="round" stroke-linejoin="round"/>
<path d="M45.6335 71.356H14.3812C10.9469 71.356 8.08495 68.7374 7.77014 65.3174C6.71122 53.884 6.71122 42.3647 7.77014 30.9313C8.08495 27.5112 10.9469 24.8926 14.3812 24.8926H45.6335C49.0678 24.8926 51.9298 27.5112 52.2446 30.9313C53.3035 42.3647 53.3035 53.884 52.2446 65.3174C51.9154 68.7374 49.0678 71.356 45.6335 71.356Z" fill="#F59A2E"/>
<path opacity="0.29" d="M52.2445 63.3274C51.9297 66.7475 49.0677 69.3661 45.6334 69.3661H14.3811C10.9468 69.3661 8.08485 66.7475 7.77004 63.3274C7.2692 57.9327 7.01163 52.538 6.98301 47.1289C6.95439 53.1962 7.21196 59.2635 7.77004 65.3165C8.08485 68.7365 10.9468 71.3552 14.3811 71.3552H45.6334C49.0677 71.3552 51.9297 68.7365 52.2445 65.3165C52.8025 59.2635 53.0744 53.1962 53.0315 47.1289C53.0029 52.5236 52.7453 57.9327 52.2445 63.3274Z" fill="#F59A2E"/>
<path opacity="0.5" d="M30.0076 60.3814C32.5919 60.3814 34.6869 59.0937 34.6869 57.5052C34.6869 55.9166 32.5919 54.6289 30.0076 54.6289C27.4233 54.6289 25.3284 55.9166 25.3284 57.5052C25.3284 59.0937 27.4233 60.3814 30.0076 60.3814Z" stroke="#F59A2E" stroke-width="1.14477" stroke-miterlimit="10"/>
<path opacity="0.5" d="M11.8916 48.6899C17.9016 49.0048 23.9832 49.1622 30.0076 49.1622C36.0176 49.1622 42.1136 49.0048 48.1236 48.6899C49.9696 48.5898 51.6581 47.8886 53.0461 46.7438C52.9889 41.6067 52.7313 36.4838 52.2591 31.3609C51.9443 27.9409 49.0824 25.3223 45.648 25.3223H14.3814C10.9471 25.3223 8.08518 27.9409 7.77037 31.3609C7.29815 36.4838 7.02627 41.6067 6.98334 46.7438C8.35706 47.8886 10.0456 48.5898 11.8916 48.6899Z" fill="#F59A2E"/>
<path d="M14.3811 69.3662C11.9627 69.3662 9.97368 67.5489 9.74473 65.1306C8.70012 53.8403 8.70012 42.3925 9.74473 31.1165C9.97368 28.6982 11.9627 26.8809 14.3811 26.8809H45.6334C48.0517 26.8809 50.0407 28.6982 50.2697 31.1165C51.3143 42.4068 51.3143 53.8546 50.2697 65.1306C50.0407 67.5489 48.0517 69.3662 45.6334 69.3662H14.3811Z" stroke="#013711" stroke-width="0.572386" stroke-linecap="round" stroke-linejoin="round" stroke-dasharray="0.57 0.57"/>
<path d="M45.6335 71.356H14.3812C10.9469 71.356 8.08495 68.7374 7.77014 65.3174C6.71122 53.884 6.71122 42.3647 7.77014 30.9313C8.08495 27.5112 10.9469 24.8926 14.3812 24.8926H45.6335C49.0678 24.8926 51.9298 27.5112 52.2446 30.9313C53.3035 42.3647 53.3035 53.884 52.2446 65.3174C51.9154 68.7374 49.0678 71.356 45.6335 71.356Z" stroke="#013711" stroke-width="0.143097" stroke-miterlimit="10"/>
<path d="M45.6335 71.356H14.3812C10.9469 71.356 8.08495 68.7374 7.77014 65.3174C6.71122 53.884 6.71122 42.3647 7.77014 30.9313C8.08495 27.5112 10.9469 24.8926 14.3812 24.8926H45.6335C49.0678 24.8926 51.9298 27.5112 52.2446 30.9313C53.3035 42.3647 53.3035 53.884 52.2446 65.3174C51.9154 68.7374 49.0678 71.356 45.6335 71.356Z" stroke="#013711" stroke-width="1.43097" stroke-miterlimit="10" stroke-linecap="round" stroke-linejoin="round"/>
<path d="M48.0376 46.8301C36.0175 47.4454 23.983 47.4454 11.9629 46.8301C7.81312 46.6155 4.65068 42.6946 4.69361 37.9152C4.75085 31.3471 4.99411 24.9077 5.4234 18.5828C5.7239 14.1325 8.98651 10.5837 12.936 10.3834C24.3122 9.82532 35.7026 9.82532 47.0788 10.3834C51.0283 10.5694 54.2909 14.1325 54.5914 18.5828C55.0207 24.9077 55.2639 31.3327 55.3212 37.9152C55.3498 42.6946 52.1874 46.6155 48.0376 46.8301Z" fill="#FFD8B4"/>
<path opacity="0.41" d="M48.0379 45.5411C36.0178 46.1564 23.9834 46.1564 11.9633 45.5411C7.97089 45.3407 4.89431 41.7061 4.69397 37.1699C4.69397 37.4704 4.67966 37.7709 4.67966 38.0571C4.63673 42.8509 7.79917 46.7574 11.949 46.972C23.9691 47.5874 36.0035 47.5874 48.0236 46.972C52.1734 46.7574 55.3359 42.8365 55.2929 38.0571C55.2929 37.7566 55.2786 37.4561 55.2786 37.1699C55.1069 41.7061 52.0303 45.3264 48.0379 45.5411Z" fill="#013711"/>
<path opacity="0.65" d="M5.63811 39.102C5.69535 32.5911 5.92431 26.2233 6.33929 19.97C6.62548 15.5626 9.7736 12.0424 13.5657 11.8564C24.5126 11.3126 35.4738 11.3126 46.4206 11.8564C50.2127 12.0424 53.3608 15.5626 53.647 19.97C54.062 26.2376 54.291 32.6054 54.3482 39.102C54.3625 40.7762 53.9905 42.3503 53.3179 43.6811C54.5628 42.0927 55.3069 39.9606 55.2926 37.6281C55.2354 31.0599 54.9921 24.6206 54.5628 18.2957C54.2623 13.8454 50.9997 10.2966 47.0503 10.0963C35.6741 9.53822 24.2836 9.53822 12.9074 10.0963C8.95795 10.2823 5.69535 13.8454 5.39485 18.2957C4.96556 24.6206 4.7223 31.0456 4.66506 37.6281C4.65075 39.9606 5.39485 42.0927 6.63979 43.6811C5.99586 42.336 5.6238 40.7762 5.63811 39.102Z" fill="#FFAF66"/>
<path opacity="0.41" d="M34.6724 29.5006C31.5386 29.5435 28.4191 29.5292 25.2853 29.5006C21.4503 29.4433 18.3451 26.4955 18.3451 23.0183C18.3451 22.1025 18.3451 21.1866 18.3451 20.2565C18.3451 19.1833 19.2895 18.2961 20.4629 18.2675C26.8164 18.1244 33.1842 18.1244 39.552 18.2675C40.7254 18.2961 41.6698 19.169 41.6698 20.2565V22.961C41.6698 26.4526 38.5217 29.4433 34.6724 29.5006Z" stroke="#013711" stroke-width="1.43097" stroke-miterlimit="10" stroke-linecap="round" stroke-linejoin="round"/>
<path d="M48.0376 46.8301C36.0175 47.4454 23.983 47.4454 11.9629 46.8301C7.81312 46.6155 4.65068 42.6946 4.69361 37.9152C4.75085 31.3471 4.99411 24.9077 5.4234 18.5828C5.7239 14.1325 8.98651 10.5837 12.936 10.3834C24.3122 9.82532 35.7026 9.82532 47.0788 10.3834C51.0283 10.5694 54.2909 14.1325 54.5914 18.5828C55.0207 24.9077 55.2639 31.3327 55.3212 37.9152C55.3498 42.6946 52.1874 46.6155 48.0376 46.8301Z" stroke="#013711" stroke-width="1.43097" stroke-miterlimit="10" stroke-linecap="round" stroke-linejoin="round"/>
<path d="M30.0077 45.2985C24.0548 45.2985 18.0162 45.1411 12.0777 44.8406C9.02969 44.6832 6.6686 41.6496 6.69722 37.9291C6.75446 31.4611 6.99772 24.9931 7.42701 18.7112C7.65597 15.2912 10.1315 12.5151 13.0507 12.372C18.6744 12.1001 24.3983 11.957 30.022 11.957C35.66 11.957 41.3695 12.1001 46.9932 12.372C49.9124 12.5151 52.388 15.3055 52.6169 18.7112C53.0462 24.9931 53.2895 31.4611 53.3467 37.9291C53.3753 41.6496 51.0142 44.6832 47.9663 44.8406C41.9848 45.1411 35.9605 45.2985 30.0077 45.2985Z" stroke="#013711" stroke-width="0.572386" stroke-linecap="round" stroke-linejoin="round" stroke-dasharray="0.57 0.57"/>
<path d="M34.6724 28.356C31.5386 28.399 28.4191 28.3846 25.2853 28.356C21.4503 28.2988 18.3451 25.351 18.3451 21.8738C18.3451 20.9579 18.3451 20.0421 18.3451 19.112C18.3451 18.0388 19.2895 17.1516 20.4629 17.1229C26.8164 16.9799 33.1842 16.9799 39.552 17.1229C40.7254 17.1516 41.6698 18.0245 41.6698 19.112V21.8165C41.6698 25.3081 38.5217 28.2988 34.6724 28.356Z" fill="#FF8719"/>
<path opacity="0.43" d="M34.6724 25.9084C31.5386 25.9513 28.4191 25.937 25.2853 25.9084C21.4503 25.8512 18.3451 22.9034 18.3451 19.4261C18.3451 19.326 18.3451 19.2115 18.3451 19.1113C18.3451 20.0271 18.3451 20.943 18.3451 21.8731C18.3451 25.3503 21.4503 28.2981 25.2853 28.3554C28.4191 28.3983 31.5386 28.3983 34.6724 28.3554C38.5217 28.2981 41.6698 25.3074 41.6698 21.8159V19.3689C41.6698 22.8605 38.5217 25.8512 34.6724 25.9084Z" fill="#FF8719"/>
<path opacity="0.7" d="M39.5376 17.1229C33.1841 16.9799 26.8163 16.9799 20.4485 17.1229C19.2752 17.1516 18.3307 18.0245 18.3307 19.112C18.3307 19.4984 18.3307 19.8704 18.3307 20.2568C18.3307 19.1835 19.2752 18.2963 20.4485 18.2677C26.802 18.1246 33.1698 18.1246 39.5376 18.2677C40.711 18.2963 41.6555 19.1692 41.6555 20.2568V19.112C41.6698 18.0245 40.7253 17.1516 39.5376 17.1229Z" fill="#FF8719"/>
<path d="M34.6724 28.356C31.5386 28.399 28.4191 28.3846 25.2853 28.356C21.4503 28.2988 18.3451 25.351 18.3451 21.8738C18.3451 20.9579 18.3451 20.0421 18.3451 19.112C18.3451 18.0388 19.2895 17.1516 20.4629 17.1229C26.8164 16.9799 33.1842 16.9799 39.552 17.1229C40.7254 17.1516 41.6698 18.0245 41.6698 19.112V21.8165C41.6698 25.3081 38.5217 28.2988 34.6724 28.356Z" stroke="#013711" stroke-width="1.43097" stroke-miterlimit="10" stroke-linecap="round" stroke-linejoin="round"/>
<path d="M34.6724 28.356C31.5386 28.399 28.4191 28.3846 25.2853 28.356C21.4503 28.2988 18.3451 25.351 18.3451 21.8738C18.3451 20.9579 18.3451 20.0421 18.3451 19.112C18.3451 18.0388 19.2895 17.1516 20.4629 17.1229C26.8164 16.9799 33.1842 16.9799 39.552 17.1229C40.7254 17.1516 41.6698 18.0245 41.6698 19.112V21.8165C41.6698 25.3081 38.5217 28.2988 34.6724 28.356Z" stroke="#013711" stroke-width="1.43097" stroke-miterlimit="10" stroke-linecap="round" stroke-linejoin="round"/>
<g opacity="0.41">
<path opacity="0.41" d="M20.978 45.6848H14.2381C13.9806 45.6848 13.7373 45.5417 13.6085 45.3127L11.5193 41.4205C10.117 38.8304 10.6607 35.7968 12.9073 33.6933L15.9124 30.8886C16.8282 30.03 18.3736 30.0443 19.2894 30.8886L22.2945 33.7076C24.5411 35.8111 25.0849 38.8304 23.6825 41.4205L21.6076 45.3127C21.4788 45.5417 21.2356 45.6848 20.978 45.6848ZM14.6674 44.2538H20.5487L22.4376 40.7479C23.5251 38.7589 23.0815 36.4121 21.3214 34.7665L18.3164 31.9475C17.9586 31.6184 17.2575 31.6041 16.8997 31.9475L13.8947 34.7522C12.1346 36.3978 11.691 38.7589 12.7785 40.7479L14.6674 44.2538Z" fill="#013711"/>
</g>
<g opacity="0.41">
<path opacity="0.41" d="M17.5434 63.5848C16.0552 63.5848 14.8388 62.3685 14.8388 60.8803V37.8131C14.8388 37.4125 15.1536 37.0977 15.5543 37.0977H19.5324C19.9331 37.0977 20.2479 37.4125 20.2479 37.8131V60.8803C20.2479 62.3685 19.0316 63.5848 17.5434 63.5848ZM16.2698 38.5286V60.8803C16.2698 61.5815 16.8422 62.1539 17.5434 62.1539C18.2445 62.1539 18.8169 61.5815 18.8169 60.8803V38.5286H16.2698Z" fill="#013711"/>
</g>
<path d="M14.553 43.9661H20.6776L22.5807 40.2599C23.7112 38.0849 23.2676 35.5235 21.436 33.7347L18.7028 31.0445C18.1304 30.4721 17.1001 30.4721 16.5278 31.0445L13.7946 33.7061C11.9773 35.4948 11.5337 38.0849 12.6498 40.2599L14.553 43.9661Z" fill="#F59A2E"/>
<path d="M14.2381 43.9668H20.9779L23.0671 40.0746C24.3121 37.7994 23.8112 35.1092 21.8079 33.2346L18.8029 30.4156C18.1732 29.8146 17.0428 29.8146 16.4131 30.4156L13.4081 33.2203C11.4048 35.0949 10.9182 37.7994 12.1489 40.0889L14.2381 43.9668Z" stroke="#013711" stroke-width="1.43097" stroke-miterlimit="10" stroke-linecap="round" stroke-linejoin="round"/>
<path d="M15.3114 42.5356H15.0967L14.9966 42.3496" stroke="#013711" stroke-width="0.42929" stroke-linecap="round" stroke-linejoin="round"/>
<path d="M14.5244 41.462L13.4226 39.4014C12.4925 37.6986 12.8788 35.6809 14.3957 34.2643L17.4007 31.4596C17.4293 31.431 17.5008 31.4023 17.6153 31.4023C17.7298 31.4023 17.8157 31.4453 17.8443 31.4596L20.8493 34.2786C22.3804 35.7096 22.7525 37.67 21.8224 39.4014L20.4773 41.9056" stroke="#013711" stroke-width="0.42929" stroke-linecap="round" stroke-linejoin="round" stroke-dasharray="0.43 0.43"/>
<path d="M20.2195 42.3496L20.1193 42.5356H19.9047" stroke="#013711" stroke-width="0.42929" stroke-linecap="round" stroke-linejoin="round"/>
<path d="M19.032 42.5352H15.7551" stroke="#013711" stroke-width="0.42929" stroke-linecap="round" stroke-linejoin="round" stroke-dasharray="0.37 0.37"/>
<path d="M17.5578 61.982C16.4559 61.982 15.5687 61.0948 15.5687 59.993V36.9258H19.5468V59.993C19.5611 61.0948 18.6596 61.982 17.5578 61.982Z" fill="#F9941C"/>
<path opacity="0.37" d="M17.5578 60.6512C16.4559 60.6512 15.5687 59.764 15.5687 58.6621V59.9929C15.5687 61.0947 16.4559 61.982 17.5578 61.982C18.6596 61.982 19.5468 61.0947 19.5468 59.9929V58.6621C19.5611 59.764 18.6596 60.6512 17.5578 60.6512Z" fill="#F9941C"/>
<path opacity="0.37" d="M19.5468 48.8184H15.5687V52.038H19.5468V48.8184Z" fill="#F9941C"/>
<path d="M17.5578 61.982C16.4559 61.982 15.5687 61.0948 15.5687 59.993V36.9258H19.5468V59.993C19.5611 61.0948 18.6596 61.982 17.5578 61.982Z" stroke="#013711" stroke-width="1.14477" stroke-miterlimit="10" stroke-linecap="round" stroke-linejoin="round"/>
<path d="M15.5691 51.7516V48.8181H19.5472V51.7516H21.2071V47.9595C21.2071 47.5159 20.8493 47.1582 20.4057 47.1582H14.7105C14.2669 47.1582 13.9091 47.5159 13.9091 47.9595V51.7516H15.5691Z" fill="white"/>
<path d="M15.5687 51.751V48.8175H19.5468V51.751H21.2067V48.4884C21.2067 47.7586 20.62 47.1719 19.8902 47.1719H15.2396C14.5098 47.1719 13.9231 47.7586 13.9231 48.4884V51.751H15.5687Z" stroke="#013711" stroke-width="1.14477" stroke-miterlimit="10" stroke-linecap="round" stroke-linejoin="round"/>
<path d="M18.2161 38.5L16.8997 39.8165" stroke="#013711" stroke-width="0.572386" stroke-miterlimit="10" stroke-linecap="round" stroke-linejoin="round"/>
<path d="M18.2161 39.8165L16.8997 38.5" stroke="#013711" stroke-width="0.572386" stroke-miterlimit="10" stroke-linecap="round" stroke-linejoin="round"/>
<path d="M17.5435 52.3243C17.907 52.3243 18.2018 52.0297 18.2018 51.6661C18.2018 51.3026 17.907 51.0078 17.5435 51.0078C17.1799 51.0078 16.8853 51.3026 16.8853 51.6661C16.8853 52.0297 17.1799 52.3243 17.5435 52.3243Z" fill="white"/>
<path d="M17.5435 52.0372C17.907 52.0372 18.2018 51.7426 18.2018 51.379C18.2018 51.0155 17.907 50.7207 17.5435 50.7207C17.1799 50.7207 16.8853 51.0155 16.8853 51.379C16.8853 51.7426 17.1799 52.0372 17.5435 52.0372Z" stroke="#013711" stroke-width="0.572386" stroke-miterlimit="10" stroke-linecap="round" stroke-linejoin="round"/>
<path d="M17.5435 54.6134C17.907 54.6134 18.2018 54.3187 18.2018 53.9551C18.2018 53.5917 17.907 53.2969 17.5435 53.2969C17.1799 53.2969 16.8853 53.5917 16.8853 53.9551C16.8853 54.3187 17.1799 54.6134 17.5435 54.6134Z" fill="white"/>
<path d="M17.5435 54.6134C17.907 54.6134 18.2018 54.3187 18.2018 53.9551C18.2018 53.5917 17.907 53.2969 17.5435 53.2969C17.1799 53.2969 16.8853 53.5917 16.8853 53.9551C16.8853 54.3187 17.1799 54.6134 17.5435 54.6134Z" stroke="#013711" stroke-width="0.572386" stroke-miterlimit="10" stroke-linecap="round" stroke-linejoin="round"/>
<path d="M17.5435 57.5177C17.907 57.5177 18.2018 57.223 18.2018 56.8594C18.2018 56.496 17.907 56.2012 17.5435 56.2012C17.1799 56.2012 16.8853 56.496 16.8853 56.8594C16.8853 57.223 17.1799 57.5177 17.5435 57.5177Z" fill="white"/>
<path d="M17.5435 57.5177C17.907 57.5177 18.2018 57.223 18.2018 56.8594C18.2018 56.496 17.907 56.2012 17.5435 56.2012C17.1799 56.2012 16.8853 56.496 16.8853 56.8594C16.8853 57.223 17.1799 57.5177 17.5435 57.5177Z" stroke="#013711" stroke-width="0.572386" stroke-miterlimit="10" stroke-linecap="round" stroke-linejoin="round"/>
<path d="M17.5437 51.7504C17.2718 51.7504 17.0572 51.5358 17.0572 51.2639V47.0568C17.0572 46.785 17.2718 46.5703 17.5437 46.5703C17.8156 46.5703 18.0302 46.785 18.0302 47.0568V51.2639C18.0302 51.5358 17.8156 51.7504 17.5437 51.7504Z" fill="white"/>
<path d="M17.5437 51.7504C17.2718 51.7504 17.0572 51.5358 17.0572 51.2639V47.0568C17.0572 46.785 17.2718 46.5703 17.5437 46.5703C17.8156 46.5703 18.0302 46.785 18.0302 47.0568V51.2639C18.0302 51.5358 17.8156 51.7504 17.5437 51.7504Z" stroke="#013711" stroke-width="0.572386" stroke-miterlimit="10" stroke-linecap="round" stroke-linejoin="round"/>
<g opacity="0.41">
<path opacity="0.41" d="M45.7625 45.8273H39.0226C38.765 45.8273 38.5218 45.6842 38.393 45.4553L36.3038 41.5631C34.9014 38.973 35.4452 35.9394 37.6918 33.8358L40.6969 31.0312C41.6127 30.1726 43.1581 30.1869 44.0739 31.0312L47.079 33.8502C49.3256 35.9537 49.8693 38.973 48.467 41.5631L46.3921 45.4553C46.2633 45.6842 46.02 45.8273 45.7625 45.8273ZM39.4519 44.3964H45.3332L47.2221 40.8905C48.3096 38.9015 47.866 36.5547 46.1059 34.9091L43.1009 32.0901C42.7431 31.7609 42.042 31.7466 41.6842 32.0901L38.6792 34.8948C36.9191 36.5404 36.4755 38.9015 37.563 40.8905L39.4519 44.3964Z" fill="#013711"/>
</g>
<path d="M39.3231 43.9661H45.4477L47.3509 40.2599C48.4813 38.0849 48.0377 35.5235 46.2061 33.7347L43.4729 31.0445C42.9006 30.4721 41.8703 30.4721 41.2979 31.0445L38.5647 33.7204C36.7474 35.5091 36.3038 38.0992 37.4199 40.2743L39.3231 43.9661Z" fill="#F59A2E"/>
<path d="M39.0225 43.9668H45.7624L47.8516 40.0746C49.0965 37.7994 48.5957 35.1092 46.5923 33.2346L43.5873 30.4156C42.9577 29.8146 41.8272 29.8146 41.1976 30.4156L38.1926 33.2203C36.1892 35.0949 35.7027 37.7994 36.9333 40.0889L39.0225 43.9668Z" stroke="#013711" stroke-width="1.43097" stroke-miterlimit="10" stroke-linecap="round" stroke-linejoin="round"/>
<path d="M40.0955 42.5356H39.8808L39.7807 42.3496" stroke="#013711" stroke-width="0.42929" stroke-linecap="round" stroke-linejoin="round"/>
<path d="M39.3089 41.462L38.2071 39.4014C37.2769 37.6986 37.6633 35.6809 39.1801 34.2643L42.1852 31.4596C42.2138 31.431 42.2853 31.4023 42.3998 31.4023C42.5143 31.4023 42.6001 31.4453 42.6288 31.4596L45.6338 34.2786C47.1649 35.7096 47.537 37.67 46.6068 39.4014L45.2617 41.9056" stroke="#013711" stroke-width="0.42929" stroke-linecap="round" stroke-linejoin="round" stroke-dasharray="0.43 0.43"/>
<path d="M45.004 42.3496L44.9039 42.5356H44.6892" stroke="#013711" stroke-width="0.42929" stroke-linecap="round" stroke-linejoin="round"/>
<path d="M43.8162 42.5352H40.5249" stroke="#013711" stroke-width="0.42929" stroke-linecap="round" stroke-linejoin="round" stroke-dasharray="0.37 0.37"/>
<g opacity="0.41">
<path opacity="0.41" d="M42.3426 63.5575C40.8544 63.5575 39.6381 62.3412 39.6381 60.853V37.7858C39.6381 37.3851 39.9529 37.0703 40.3536 37.0703H44.3317C44.7323 37.0703 45.0472 37.3851 45.0472 37.7858V60.853C45.0472 62.3412 43.8308 63.5575 42.3426 63.5575ZM41.0691 38.5013V60.853C41.0691 61.5541 41.6414 62.1265 42.3426 62.1265C43.0438 62.1265 43.6162 61.5541 43.6162 60.853V38.5013H41.0691Z" fill="#013711"/>
</g>
<path d="M42.3427 61.982C41.2408 61.982 40.3536 61.0948 40.3536 59.993V36.9258H44.3317V59.993C44.3317 61.0948 43.4445 61.982 42.3427 61.982Z" fill="#F9941C"/>
<path opacity="0.37" d="M42.3427 60.6082C41.2408 60.6082 40.3536 59.721 40.3536 58.6191V60.136C40.3536 61.2378 41.2408 62.125 42.3427 62.125C43.4445 62.125 44.3317 61.2378 44.3317 60.136V58.6191C44.3317 59.7067 43.4445 60.6082 42.3427 60.6082Z" fill="#F9941C"/>
<path opacity="0.37" d="M44.3173 48.8184H40.3393V52.038H44.3173V48.8184Z" fill="#F9941C"/>
<path d="M42.3427 61.982C41.2408 61.982 40.3536 61.0948 40.3536 59.993V36.9258H44.3317V59.993C44.3317 61.0948 43.4445 61.982 42.3427 61.982Z" stroke="#013711" stroke-width="1.14477" stroke-miterlimit="10" stroke-linecap="round" stroke-linejoin="round"/>
<path d="M40.3536 51.7516V48.8181H44.3316V51.7516H45.9916V47.9595C45.9916 47.5159 45.6338 47.1582 45.1902 47.1582H39.495C39.0514 47.1582 38.6936 47.5159 38.6936 47.9595V51.7516H40.3536Z" fill="white"/>
<path d="M40.3532 51.751V48.8175H44.3313V51.751H45.9912V48.4884C45.9912 47.7586 45.4045 47.1719 44.6747 47.1719H40.0241C39.2943 47.1719 38.7076 47.7586 38.7076 48.4884V51.751H40.3532Z" stroke="#013711" stroke-width="1.14477" stroke-miterlimit="10" stroke-linecap="round" stroke-linejoin="round"/>
<path d="M43.0006 38.5L41.6841 39.8165" stroke="#013711" stroke-width="0.572386" stroke-miterlimit="10" stroke-linecap="round" stroke-linejoin="round"/>
<path d="M43.0006 39.8165L41.6841 38.5" stroke="#013711" stroke-width="0.572386" stroke-miterlimit="10" stroke-linecap="round" stroke-linejoin="round"/>
<path d="M42.328 52.3243C42.6915 52.3243 42.9863 52.0297 42.9863 51.6661C42.9863 51.3026 42.6915 51.0078 42.328 51.0078C41.9644 51.0078 41.6698 51.3026 41.6698 51.6661C41.6698 52.0297 41.9644 52.3243 42.328 52.3243Z" fill="white"/>
<path d="M42.328 52.0372C42.6915 52.0372 42.9863 51.7426 42.9863 51.379C42.9863 51.0155 42.6915 50.7207 42.328 50.7207C41.9644 50.7207 41.6698 51.0155 41.6698 51.379C41.6698 51.7426 41.9644 52.0372 42.328 52.0372Z" stroke="#013711" stroke-width="0.572386" stroke-miterlimit="10" stroke-linecap="round" stroke-linejoin="round"/>
<path d="M42.328 54.6134C42.6915 54.6134 42.9863 54.3187 42.9863 53.9551C42.9863 53.5917 42.6915 53.2969 42.328 53.2969C41.9644 53.2969 41.6698 53.5917 41.6698 53.9551C41.6698 54.3187 41.9644 54.6134 42.328 54.6134Z" fill="white"/>
<path d="M42.328 54.6134C42.6915 54.6134 42.9863 54.3187 42.9863 53.9551C42.9863 53.5917 42.6915 53.2969 42.328 53.2969C41.9644 53.2969 41.6698 53.5917 41.6698 53.9551C41.6698 54.3187 41.9644 54.6134 42.328 54.6134Z" stroke="#013711" stroke-width="0.572386" stroke-miterlimit="10" stroke-linecap="round" stroke-linejoin="round"/>
<path d="M42.328 57.5177C42.6915 57.5177 42.9863 57.223 42.9863 56.8594C42.9863 56.496 42.6915 56.2012 42.328 56.2012C41.9644 56.2012 41.6698 56.496 41.6698 56.8594C41.6698 57.223 41.9644 57.5177 42.328 57.5177Z" fill="white"/>
<path d="M42.328 57.5177C42.6915 57.5177 42.9863 57.223 42.9863 56.8594C42.9863 56.496 42.6915 56.2012 42.328 56.2012C41.9644 56.2012 41.6698 56.496 41.6698 56.8594C41.6698 57.223 41.9644 57.5177 42.328 57.5177Z" stroke="#013711" stroke-width="0.572386" stroke-miterlimit="10" stroke-linecap="round" stroke-linejoin="round"/>
<path d="M42.3282 51.7504C42.0563 51.7504 41.8417 51.5358 41.8417 51.2639V47.0568C41.8417 46.785 42.0563 46.5703 42.3282 46.5703C42.6001 46.5703 42.8147 46.785 42.8147 47.0568V51.2639C42.8147 51.5358 42.6001 51.7504 42.3282 51.7504Z" fill="white"/>
<path d="M42.3282 51.7504C42.0563 51.7504 41.8417 51.5358 41.8417 51.2639V47.0568C41.8417 46.785 42.0563 46.5703 42.3282 46.5703C42.6001 46.5703 42.8147 46.785 42.8147 47.0568V51.2639C42.8147 51.5358 42.6001 51.7504 42.3282 51.7504Z" stroke="#013711" stroke-width="0.572386" stroke-miterlimit="10" stroke-linecap="round" stroke-linejoin="round"/>
<path d="M40.6681 24.0193C41.169 24.6489 42.142 24.6489 42.6429 24.0193C42.9434 23.6472 43.0006 23.1321 42.8003 22.6885L41.6555 20.2129L40.5107 22.6885C40.3104 23.1178 40.3819 23.6329 40.6681 24.0193Z" fill="white"/>
<path d="M40.6681 24.0193C41.169 24.6489 42.142 24.6489 42.6429 24.0193C42.9434 23.6472 43.0006 23.1321 42.8003 22.6885L41.6555 20.2129L40.5107 22.6885C40.3104 23.1178 40.3819 23.6329 40.6681 24.0193Z" stroke="#013711" stroke-width="0.85858" stroke-miterlimit="10" stroke-linecap="round" stroke-linejoin="round"/>
<path d="M18.3307 20.9863H41.3406" stroke="#013711" stroke-width="1.28787" stroke-miterlimit="10" stroke-linejoin="round" stroke-dasharray="0.72 0.72"/>
<path d="M30.0076 59.6646C32.5919 59.6646 34.6869 58.3769 34.6869 56.7884C34.6869 55.1998 32.5919 53.9121 30.0076 53.9121C27.4233 53.9121 25.3284 55.1998 25.3284 56.7884C25.3284 58.3769 27.4233 59.6646 30.0076 59.6646Z" fill="#FCCA86"/>
<path opacity="0.6" d="M30.0076 54.7291C32.3687 54.7291 34.3291 55.8023 34.644 57.2046C34.6726 57.0759 34.6869 56.9328 34.6869 56.804C34.6869 55.2156 32.5834 53.9277 30.0076 53.9277C27.4319 53.9277 25.3284 55.2156 25.3284 56.804C25.3284 56.9471 25.3427 57.0759 25.3713 57.2046C25.6861 55.8023 27.6322 54.7291 30.0076 54.7291Z" fill="#FCCA86"/>
<path opacity="0.77" d="M30.0076 58.3767C27.9327 58.3767 26.144 57.6899 25.3284 56.7168C25.3284 56.7454 25.3284 56.774 25.3284 56.7883C25.3284 58.3767 27.4319 59.6646 30.0076 59.6646C32.5834 59.6646 34.6869 58.3767 34.6869 56.7883C34.6869 56.7597 34.6869 56.7311 34.6869 56.7168C33.8569 57.7042 32.0825 58.3767 30.0076 58.3767Z" fill="#FCCA86"/>
<path d="M30.0076 59.6646C32.5919 59.6646 34.6869 58.3769 34.6869 56.7884C34.6869 55.1998 32.5919 53.9121 30.0076 53.9121C27.4233 53.9121 25.3284 55.1998 25.3284 56.7884C25.3284 58.3769 27.4233 59.6646 30.0076 59.6646Z" stroke="#013711" stroke-width="0.85858" stroke-miterlimit="10" stroke-linecap="round" stroke-linejoin="round"/>
<path d="M30.0076 59.6646C32.5919 59.6646 34.6869 58.3769 34.6869 56.7884C34.6869 55.1998 32.5919 53.9121 30.0076 53.9121C27.4233 53.9121 25.3284 55.1998 25.3284 56.7884C25.3284 58.3769 27.4233 59.6646 30.0076 59.6646Z" stroke="#013711" stroke-width="0.85858" stroke-miterlimit="10" stroke-linecap="round" stroke-linejoin="round"/>
<path d="M33.1269 56.2441C33.2987 56.4302 33.3988 56.6162 33.3988 56.7879C33.3988 57.1886 32.8694 57.7037 31.9679 58.0472" stroke="#013711" stroke-width="0.42929" stroke-miterlimit="10" stroke-linecap="round" stroke-linejoin="round"/>
<path d="M30.0076 55.2012C31.0236 55.2012 31.8821 55.4444 32.4688 55.7593" stroke="#013711" stroke-width="0.42929" stroke-miterlimit="10" stroke-linecap="round" stroke-linejoin="round"/>
</svg>
