<svg width="14" height="18" viewBox="0 0 14 18" fill="none" xmlns="http://www.w3.org/2000/svg">
<path d="M1.6875 0C0.755859 0 0 0.755859 0 1.6875V16.3125C0 17.2441 0.755859 18 1.6875 18H5.0625V15.1875C5.0625 14.2559 5.81836 13.5 6.75 13.5C7.68164 13.5 8.4375 14.2559 8.4375 15.1875V18H11.8125C12.7441 18 13.5 17.2441 13.5 16.3125V1.6875C13.5 0.755859 12.7441 0 11.8125 0H1.6875ZM2.25 8.4375C2.25 8.12813 2.50312 7.875 2.8125 7.875H3.9375C4.24687 7.875 4.5 8.12813 4.5 8.4375V9.5625C4.5 9.87187 4.24687 10.125 3.9375 10.125H2.8125C2.50312 10.125 2.25 9.87187 2.25 9.5625V8.4375ZM6.1875 7.875H7.3125C7.62187 7.875 7.875 8.12813 7.875 8.4375V9.5625C7.875 9.87187 7.62187 10.125 7.3125 10.125H6.1875C5.87813 10.125 5.625 9.87187 5.625 9.5625V8.4375C5.625 8.12813 5.87813 7.875 6.1875 7.875ZM9 8.4375C9 8.12813 9.25313 7.875 9.5625 7.875H10.6875C10.9969 7.875 11.25 8.12813 11.25 8.4375V9.5625C11.25 9.87187 10.9969 10.125 10.6875 10.125H9.5625C9.25313 10.125 9 9.87187 9 9.5625V8.4375ZM2.8125 3.375H3.9375C4.24687 3.375 4.5 3.62812 4.5 3.9375V5.0625C4.5 5.37187 4.24687 5.625 3.9375 5.625H2.8125C2.50312 5.625 2.25 5.37187 2.25 5.0625V3.9375C2.25 3.62812 2.50312 3.375 2.8125 3.375ZM5.625 3.9375C5.625 3.62812 5.87813 3.375 6.1875 3.375H7.3125C7.62187 3.375 7.875 3.62812 7.875 3.9375V5.0625C7.875 5.37187 7.62187 5.625 7.3125 5.625H6.1875C5.87813 5.625 5.625 5.37187 5.625 5.0625V3.9375ZM9.5625 3.375H10.6875C10.9969 3.375 11.25 3.62812 11.25 3.9375V5.0625C11.25 5.37187 10.9969 5.625 10.6875 5.625H9.5625C9.25313 5.625 9 5.37187 9 5.0625V3.9375C9 3.62812 9.25313 3.375 9.5625 3.375Z" fill="#FF7A00"/>
</svg>
