<svg width="10" height="9" viewBox="0 0 10 9" fill="none" xmlns="http://www.w3.org/2000/svg">
<path d="M1.17188 0.495117C2.49175 -0.409799 4.1219 0.0151299 5.00195 1.04492C5.88196 0.0150845 7.51213 -0.404725 8.83203 0.495117C9.53203 0.975117 9.97195 1.78574 10.002 2.63574C10.0667 4.57554 8.35232 6.13094 5.72754 8.51074L5.67188 8.56055C5.2919 8.91032 4.70708 8.91028 4.32715 8.56543L4.27734 8.52051C1.65248 6.13563 -0.0678578 4.58048 0.00195312 2.64062C0.0319527 1.78564 0.471891 0.97512 1.17188 0.495117ZM7.25195 1C6.48199 1.00005 5.73167 1.4957 5.47168 2.18066H4.53711C4.27211 1.49566 3.52195 1 2.75195 1C1.75212 1.00005 1.00212 1.7502 1.00195 2.75C1.00195 4.195 2.57215 5.62039 4.95215 7.77539L5.00195 7.8252L5.05176 7.77539C7.43176 5.62039 9.00195 4.195 9.00195 2.75C9.00179 1.75016 8.25184 1 7.25195 1Z" fill="#5A5A5A"/>
</svg>
