<svg width="165" height="63" viewBox="0 0 165 63" fill="none" xmlns="http://www.w3.org/2000/svg">
<mask id="mask0_2850_11612" style="mask-type:luminance" maskUnits="userSpaceOnUse" x="8" y="57" width="71" height="6">
<path d="M8.4151 57.4004H78.0952V62.9555H8.4151V57.4004Z" fill="white"/>
</mask>
<g mask="url(#mask0_2850_11612)">
<path d="M75.0991 57.4883H10.8821C9.87452 57.4883 8.98465 57.945 8.44165 58.6444H28.3037C29.2617 58.6444 30.0359 59.3532 30.0359 60.227C30.0359 61.1007 29.2617 61.8095 28.3037 61.8095H8.44165C8.98465 62.5089 9.87452 62.9657 10.8821 62.9657H75.0991C76.7529 62.9657 78.0949 61.7394 78.0949 60.227C78.0949 58.7145 76.7529 57.4883 75.0991 57.4883Z" fill="#F59A2E"/>
</g>
<path d="M3.63989 12.6269L4.71145 12.5625L5.37214 21.6447L4.30058 21.7092L3.63989 12.6269Z" fill="#F59A2E"/>
<path d="M68.3905 17.1191H33.2666C32.8578 17.8223 31.7119 19.4541 29.0196 21.3646H64.9776C66.6128 21.3646 67.9363 22.5757 67.9363 24.0673V47.9536C67.9363 49.4471 66.6128 50.6582 64.9776 50.6582H21.0066C19.3735 50.6582 18.048 49.4471 18.048 47.9536V26.2677C16.2559 26.66 14.8643 26.751 13.9682 26.751C13.8299 26.751 13.7081 26.7472 13.5945 26.7453V51.2458C13.5945 53.2661 15.3846 54.9037 17.5938 54.9037H68.3905C70.5997 54.9037 72.3918 53.2661 72.3918 51.2458V20.7752C72.3918 18.7548 70.5997 17.1191 68.3905 17.1191Z" fill="#F59A2E"/>
<path d="M19.0983 8.07388L24.0803 3.99332L23.8821 3.64648L6.40271 12.0161L6.66079 12.4653L12.2994 11.2883C14.3888 10.8524 17.5002 9.37974 19.0983 8.07388Z" fill="#F59A2E"/>
<mask id="mask1_2850_11612" style="mask-type:luminance" maskUnits="userSpaceOnUse" x="0" y="0" width="30" height="15">
<path d="M0 0H29.027V14.2166H0V0Z" fill="white"/>
</mask>
<g mask="url(#mask1_2850_11612)">
<path d="M0.0271606 13.8454L12.2995 11.2868C14.3889 10.8509 17.5004 9.37825 19.0984 8.07239L28.9447 0.0117188L15.9663 2.98353C13.881 3.46115 10.7737 4.97548 9.17772 6.29271L0.0271606 13.8454Z" fill="#F59A2E"/>
</g>
<path d="M5.97008 24.1153C6.00724 24.6422 5.79665 24.9076 5.49934 24.7029C5.20203 24.5001 4.74161 24.5285 4.47527 24.7654C4.21099 25.0023 3.96117 24.7673 3.924 24.2404C3.88684 23.7135 4.31422 23.2549 4.87788 23.2208C5.43946 23.1866 5.93085 23.5903 5.97008 24.1153Z" fill="#F59A2E"/>
<path d="M25.273 6.07031L20.7576 9.76613C18.8375 11.3373 15.3668 12.9786 12.8541 13.5036L7.85352 14.5461L13.6882 24.7295C13.7729 24.7332 13.8637 24.7332 13.9649 24.7332C15.5444 24.7332 18.8705 24.411 23.4004 22.2409C28.6136 19.7448 30.5875 17.3018 31.1841 16.3902L25.273 6.07031ZM16.3971 23.1203C16.1411 23.2435 15.8665 23.3004 15.596 23.3004C14.9725 23.3004 14.3696 22.9915 14.0599 22.4513L11.221 17.4989C10.7771 16.7237 11.1054 15.7685 11.9519 15.3629C12.8004 14.9573 13.8472 15.2549 14.2891 16.0301L17.128 20.9825C17.5719 21.7576 17.2436 22.7148 16.3971 23.1203Z" fill="#F59A2E"/>
<path d="M88.3636 62.4274C88.4338 62.4274 88.4957 62.454 88.5453 62.5033C88.5989 62.5487 88.6279 62.6056 88.6279 62.67C88.6279 62.7421 88.5989 62.8027 88.5453 62.852C88.4957 62.9032 88.4338 62.9278 88.3636 62.9278H84.961C84.8722 62.9278 84.8 62.8975 84.7463 62.8368C84.6967 62.7819 84.6802 62.7136 84.6967 62.6321L85.7869 56.317C85.7972 56.2526 85.8323 56.2014 85.8942 56.1654C85.9541 56.1256 86.0202 56.1104 86.0925 56.1199C86.1627 56.1313 86.2205 56.1635 86.2659 56.2185C86.3092 56.2696 86.3258 56.3284 86.3154 56.3928L85.2666 62.4274H88.3636Z" fill="black"/>
<path d="M91.8812 61.977C91.9349 61.9372 91.9989 61.9202 92.0711 61.924C92.1413 61.9297 92.2033 61.9581 92.2528 62.0074C92.3024 62.0585 92.321 62.1173 92.3106 62.1817C92.3045 62.2481 92.2735 62.303 92.2198 62.3485C92.065 62.4698 91.8688 62.5873 91.6334 62.6973C91.396 62.8091 91.1338 62.864 90.8489 62.864C90.7601 62.864 90.6754 62.8565 90.5929 62.8413C90.1964 62.792 89.895 62.6101 89.6927 62.2955C89.5708 62.1097 89.5048 61.8974 89.4945 61.6586C89.4821 61.6397 89.4779 61.6188 89.4779 61.598C89.4779 61.598 89.4821 61.5961 89.4945 61.5904C89.4821 61.3592 89.5275 61.1166 89.6266 60.8626C89.736 60.6105 89.9012 60.3812 90.1221 60.1727C90.3472 59.9661 90.6114 59.8069 90.9149 59.6951C91.1297 59.6193 91.332 59.5776 91.5261 59.5662C91.7181 59.5568 91.8833 59.5852 92.0216 59.6496C92.2632 59.7614 92.3953 59.9339 92.418 60.1651C92.4345 60.3319 92.385 60.5063 92.2694 60.6882C92.1537 60.8702 91.9824 61.0427 91.7573 61.2038C91.4105 61.4369 91.0842 61.598 90.7828 61.689C90.4793 61.7799 90.2315 61.8311 90.0395 61.8406C90.0664 61.9221 90.0994 61.9922 90.1386 62.0529C90.2584 62.2348 90.4359 62.339 90.6672 62.3637C90.9191 62.4054 91.1503 62.3788 91.3609 62.2879C91.5756 62.1931 91.7491 62.0889 91.8812 61.977ZM90.1221 61.0294C90.0767 61.1355 90.0478 61.2474 90.0313 61.363C90.184 61.3478 90.3864 61.3023 90.6341 61.2265C90.886 61.1507 91.1544 61.0142 91.4352 60.8171C91.6045 60.6958 91.7263 60.5821 91.7986 60.476C91.8688 60.366 91.906 60.2751 91.906 60.2031C91.8936 60.1879 91.8812 60.1689 91.8647 60.1424C91.8523 60.1178 91.8234 60.095 91.7738 60.0742C91.7408 60.0552 91.6851 60.0438 91.6087 60.0438C91.5426 60.0438 91.4641 60.0552 91.3774 60.0742C91.2948 60.0893 91.2061 60.1121 91.1131 60.1424C90.8757 60.2296 90.6713 60.3509 90.502 60.5063C90.3306 60.6579 90.2047 60.8323 90.1221 61.0294Z" fill="black"/>
<path d="M96.1645 59.6554C96.2244 59.6763 96.2719 59.7123 96.3049 59.7616C96.3421 59.8071 96.3586 59.8601 96.3545 59.9208L95.8837 62.741C95.8713 62.8073 95.8362 62.8604 95.7764 62.9002C95.7206 62.9343 95.6607 62.9476 95.5947 62.9381C95.5162 62.9324 95.4563 62.904 95.413 62.8471C95.3675 62.7921 95.3552 62.7315 95.3717 62.6652L95.6029 61.2778C95.4254 61.5507 95.2313 61.8161 95.0166 62.0738C94.8018 62.3278 94.5747 62.5363 94.3394 62.7031C94.1081 62.8661 93.8769 62.9457 93.6456 62.9457C93.6002 62.9457 93.563 62.9419 93.53 62.9381C93.2761 62.904 93.1088 62.7542 93.0262 62.4908C92.9602 62.2842 92.954 62.034 93.0097 61.7403C93.0696 61.4484 93.1873 61.147 93.3648 60.8381C93.5465 60.5311 93.7798 60.2581 94.0668 60.0193C94.4343 59.7218 94.8018 59.6005 95.1652 59.6554C95.2912 59.6763 95.4068 59.7142 95.5121 59.7691C95.6153 59.8203 95.7062 59.8753 95.7846 59.9359C95.8011 59.8904 95.8259 59.8431 95.8589 59.7919C95.9188 59.6668 96.02 59.6213 96.1645 59.6554ZM93.6043 62.4605C93.7736 62.4813 94.0358 62.3297 94.3889 62.0056C94.7399 61.6777 95.1239 61.1394 95.5369 60.3908C95.4873 60.3415 95.4233 60.2885 95.3469 60.2316C95.2684 60.1766 95.1817 60.1444 95.0826 60.133C95.0537 60.1293 95.0269 60.1255 95 60.1255C94.8225 60.1255 94.6305 60.2089 94.4219 60.3756C94.1742 60.5841 93.976 60.8154 93.8273 61.0731C93.6787 61.3271 93.5796 61.5697 93.53 61.8009C93.4805 62.034 93.4763 62.2179 93.5217 62.3543C93.5259 62.3695 93.5341 62.3922 93.5465 62.4226C93.563 62.4491 93.5816 62.4605 93.6043 62.4605Z" fill="black"/>
<path d="M99.9369 59.8289C99.9906 59.8706 100.024 59.9256 100.036 59.9957C100.046 60.062 100.03 60.1208 99.9864 60.1701C99.9472 60.2212 99.8914 60.2516 99.8212 60.261C99.749 60.2724 99.685 60.2573 99.6313 60.2156C99.6251 60.2156 99.5735 60.1985 99.4744 60.1625C99.3794 60.1284 99.2473 60.117 99.078 60.1322C98.9128 60.1435 98.7187 60.2194 98.4999 60.3596C98.3842 60.4316 98.2707 60.5548 98.1613 60.7311C98.056 60.9092 97.9548 61.1101 97.8557 61.3376C97.7607 61.5612 97.6761 61.7887 97.5997 62.0199C97.5212 62.2473 97.4613 62.452 97.418 62.634C97.3891 62.7553 97.3065 62.8159 97.1702 62.8159C97.1475 62.8159 97.1289 62.814 97.1124 62.8083C97.0505 62.8045 96.9989 62.7742 96.9555 62.7173C96.9101 62.6624 96.8977 62.6017 96.9142 62.5354L97.385 59.7228C97.3953 59.6583 97.4283 59.6072 97.4841 59.5712C97.5439 59.5314 97.61 59.5143 97.6823 59.5181C97.7525 59.5333 97.8082 59.5674 97.8474 59.6166C97.8908 59.6678 97.9094 59.7266 97.9052 59.791L97.8144 60.352C97.9403 60.1814 98.0704 60.0526 98.2026 59.9654C98.4441 59.81 98.6692 59.7133 98.8798 59.6773C99.0883 59.6375 99.27 59.6299 99.4248 59.6546C99.5838 59.6811 99.7077 59.7152 99.7965 59.7607C99.8832 59.8062 99.9307 59.8289 99.9369 59.8289Z" fill="black"/>
<path d="M103.26 59.7913C103.376 59.8823 103.452 60.0377 103.491 60.2538C103.528 60.4717 103.541 60.7238 103.524 61.0119C103.508 61.3 103.477 61.5919 103.434 61.8837C103.388 62.1718 103.343 62.4296 103.293 62.657C103.287 62.7233 103.254 62.7764 103.194 62.8162C103.132 62.8522 103.066 62.8617 102.996 62.8465C102.93 62.8371 102.874 62.8048 102.831 62.748C102.785 62.693 102.773 62.6324 102.789 62.566C102.86 62.1927 102.915 61.8345 102.955 61.4895C102.992 61.1408 103.008 60.8489 103.004 60.6101C102.998 60.3675 102.971 60.2197 102.921 60.1628C102.855 60.1135 102.777 60.0946 102.69 60.1097C102.529 60.1514 102.356 60.2652 102.17 60.4509C101.988 60.6328 101.807 60.8584 101.625 61.1256C101.447 61.3891 101.28 61.6639 101.121 61.952C100.96 62.2363 100.828 62.494 100.725 62.7252C100.679 62.8219 100.601 62.8693 100.485 62.8693C100.462 62.8693 100.438 62.8674 100.411 62.8617C100.345 62.8428 100.291 62.8067 100.254 62.7556C100.221 62.7006 100.213 62.6456 100.229 62.5888L100.749 59.7913C100.754 59.7269 100.787 59.6757 100.849 59.6397C100.908 59.5999 100.975 59.5866 101.047 59.6018C101.113 59.6075 101.167 59.6378 101.212 59.6928C101.255 59.7496 101.27 59.8065 101.253 59.8671L101.03 61.1029C101.173 60.8811 101.328 60.667 101.493 60.4585C101.662 60.2519 101.84 60.0775 102.021 59.9354C102.203 59.7894 102.385 59.6928 102.566 59.6473C102.818 59.5866 103.049 59.6359 103.26 59.7913Z" fill="black"/>
<path d="M104.337 62.416C104.42 62.416 104.49 62.4444 104.552 62.4994C104.618 62.5506 104.651 62.6188 104.651 62.7041C104.651 62.7799 104.618 62.8481 104.552 62.9088C104.49 62.9694 104.42 62.9998 104.337 62.9998C104.242 62.9998 104.166 62.9694 104.106 62.9088C104.05 62.8481 104.023 62.7799 104.023 62.7041C104.023 62.6188 104.05 62.5506 104.106 62.4994C104.166 62.4444 104.242 62.416 104.337 62.416Z" fill="black"/>
<path d="M113 56.5921C113.049 56.6489 113.068 56.7115 113.057 56.7816C113.045 56.8479 113.008 56.901 112.942 56.9408C112.886 56.9768 112.82 56.992 112.744 56.9863C112.671 56.9768 112.611 56.9446 112.562 56.8877C112.562 56.884 112.523 56.8461 112.446 56.774C112.368 56.7039 112.26 56.6338 112.124 56.5618C111.992 56.4859 111.831 56.4386 111.645 56.4177C111.464 56.3988 111.253 56.4329 111.018 56.5239C110.724 56.6452 110.46 56.8479 110.225 57.1303C109.994 57.409 109.799 57.7255 109.647 58.078C109.492 58.4324 109.37 58.7792 109.283 59.1166C109.228 59.3497 109.186 59.6132 109.159 59.9051C109.13 60.1931 109.12 60.485 109.126 60.7769C109.137 61.0707 109.172 61.3455 109.234 61.6032C109.3 61.8572 109.399 62.0581 109.531 62.2097C109.68 62.3765 109.865 62.4599 110.093 62.4599C110.295 62.4599 110.481 62.4144 110.646 62.3234C110.815 62.2287 110.968 62.1112 111.1 61.9747C111.236 61.8382 111.35 61.7018 111.439 61.5653C111.532 61.4251 111.6 61.3076 111.645 61.2166C111.695 61.1218 111.72 61.0725 111.72 61.0725C111.746 61.0081 111.796 60.9626 111.868 60.9361C111.938 60.9114 112.004 60.9096 112.066 60.9285C112.137 60.955 112.186 61.0005 112.215 61.065C112.248 61.1313 112.25 61.1938 112.223 61.2545C112.217 61.2697 112.184 61.336 112.124 61.4516C112.062 61.5691 111.976 61.7132 111.86 61.8837C111.744 62.0505 111.6 62.2173 111.431 62.3841C111.265 62.5471 111.069 62.6835 110.844 62.7935C110.617 62.8996 110.367 62.9527 110.093 62.9527C109.69 62.9527 109.362 62.8086 109.11 62.5206C108.916 62.2988 108.782 62.0259 108.705 61.7018C108.627 61.3739 108.59 61.0346 108.59 60.6859C108.59 60.3372 108.608 60.015 108.647 59.7155C108.685 59.4123 108.726 59.1754 108.771 59.0029C108.798 58.8721 108.856 58.6731 108.945 58.404C109.038 58.1311 109.164 57.843 109.325 57.5397C109.484 57.2365 109.684 56.9522 109.927 56.6831C110.169 56.4158 110.464 56.213 110.811 56.0766C111.075 55.9666 111.323 55.9155 111.554 55.9249C111.79 55.9306 112.002 55.9685 112.19 56.0387C112.382 56.1107 112.547 56.1979 112.686 56.304C112.822 56.4063 112.927 56.5011 113 56.5921Z" fill="black"/>
<path d="M115.957 60.3868C115.984 60.7109 115.959 60.9971 115.882 61.2435C115.81 61.4861 115.717 61.6946 115.602 61.8652C115.486 62.0376 115.379 62.1741 115.28 62.2745C115.114 62.4375 114.941 62.5607 114.759 62.646C114.582 62.7332 114.414 62.7749 114.256 62.7749C113.909 62.7749 113.636 62.682 113.438 62.4944C113.207 62.2632 113.108 61.9069 113.141 61.4254C113.161 61.107 113.236 60.8322 113.364 60.5991C113.496 60.3622 113.653 60.1651 113.834 60.0078C114.02 59.8467 114.2 59.7273 114.371 59.6515C114.772 59.4752 115.135 59.4733 115.461 59.6439C115.763 59.8069 115.928 60.0533 115.957 60.3868ZM114.9 61.941C114.976 61.8652 115.059 61.759 115.147 61.6226C115.24 61.4861 115.317 61.3193 115.379 61.1222C115.439 60.9251 115.457 60.6939 115.436 60.4247C115.42 60.258 115.339 60.1367 115.197 60.0608C115.125 60.021 115.042 60.0002 114.949 60.0002C114.838 60.0002 114.722 60.0267 114.602 60.076C114.381 60.1727 114.175 60.3413 113.983 60.5839C113.795 60.8227 113.688 61.1127 113.661 61.4558C113.632 61.795 113.686 62.03 113.818 62.1608C113.917 62.2518 114.061 62.2973 114.256 62.2973C114.322 62.2973 114.412 62.2707 114.528 62.2139C114.648 62.1532 114.772 62.0623 114.9 61.941Z" fill="black"/>
<path d="M119.522 59.7913C119.638 59.8823 119.714 60.0377 119.754 60.2538C119.791 60.4717 119.803 60.7238 119.787 61.0119C119.77 61.3 119.739 61.5919 119.696 61.8837C119.65 62.1718 119.605 62.4296 119.555 62.657C119.549 62.7233 119.516 62.7764 119.456 62.8162C119.394 62.8522 119.328 62.8617 119.258 62.8465C119.192 62.8371 119.136 62.8048 119.093 62.748C119.047 62.693 119.035 62.6324 119.052 62.566C119.122 62.1927 119.178 61.8345 119.217 61.4895C119.254 61.1408 119.27 60.8489 119.266 60.6101C119.26 60.3675 119.233 60.2197 119.184 60.1628C119.118 60.1135 119.039 60.0946 118.952 60.1097C118.791 60.1514 118.618 60.2652 118.432 60.4509C118.25 60.6328 118.069 60.8584 117.887 61.1256C117.71 61.3891 117.542 61.6639 117.383 61.952C117.222 62.2363 117.09 62.494 116.987 62.7252C116.941 62.8219 116.863 62.8693 116.747 62.8693C116.725 62.8693 116.7 62.8674 116.673 62.8617C116.607 62.8428 116.553 62.8067 116.516 62.7556C116.483 62.7006 116.475 62.6456 116.491 62.5888L117.012 59.7913C117.016 59.7269 117.049 59.6757 117.111 59.6397C117.171 59.5999 117.237 59.5866 117.309 59.6018C117.375 59.6075 117.429 59.6378 117.474 59.6928C117.518 59.7496 117.532 59.8065 117.515 59.8671L117.292 61.1029C117.435 60.8811 117.59 60.667 117.755 60.4585C117.924 60.2519 118.102 60.0775 118.284 59.9354C118.465 59.7894 118.647 59.6928 118.829 59.6473C119.08 59.5866 119.312 59.6359 119.522 59.7913Z" fill="black"/>
<path d="M123.519 59.7913C123.635 59.8823 123.711 60.0377 123.75 60.2538C123.788 60.4717 123.8 60.7238 123.783 61.0119C123.767 61.3 123.736 61.5919 123.693 61.8837C123.647 62.1718 123.602 62.4296 123.552 62.657C123.546 62.7233 123.513 62.7764 123.453 62.8162C123.391 62.8522 123.325 62.8617 123.255 62.8465C123.189 62.8371 123.133 62.8048 123.09 62.748C123.044 62.693 123.032 62.6324 123.048 62.566C123.119 62.1927 123.174 61.8345 123.214 61.4895C123.251 61.1408 123.267 60.8489 123.263 60.6101C123.257 60.3675 123.23 60.2197 123.181 60.1628C123.115 60.1135 123.036 60.0946 122.949 60.1097C122.788 60.1514 122.615 60.2652 122.429 60.4509C122.247 60.6328 122.066 60.8584 121.884 61.1256C121.706 61.3891 121.539 61.6639 121.38 61.952C121.219 62.2363 121.087 62.494 120.984 62.7252C120.938 62.8219 120.86 62.8693 120.744 62.8693C120.722 62.8693 120.697 62.8674 120.67 62.8617C120.604 62.8428 120.55 62.8067 120.513 62.7556C120.48 62.7006 120.472 62.6456 120.488 62.5888L121.009 59.7913C121.013 59.7269 121.046 59.6757 121.108 59.6397C121.168 59.5999 121.234 59.5866 121.306 59.6018C121.372 59.6075 121.426 59.6378 121.471 59.6928C121.514 59.7496 121.529 59.8065 121.512 59.8671L121.289 61.1029C121.432 60.8811 121.587 60.667 121.752 60.4585C121.921 60.2519 122.099 60.0775 122.28 59.9354C122.462 59.7894 122.644 59.6928 122.825 59.6473C123.077 59.5866 123.309 59.6359 123.519 59.7913Z" fill="black"/>
<path d="M126.936 61.979C126.99 61.9392 127.054 61.9221 127.126 61.9259C127.196 61.9316 127.258 61.96 127.308 62.0093C127.357 62.0605 127.376 62.1192 127.365 62.1837C127.359 62.25 127.328 62.305 127.275 62.3505C127.12 62.4718 126.924 62.5893 126.688 62.6992C126.451 62.811 126.189 62.866 125.904 62.866C125.815 62.866 125.73 62.8584 125.648 62.8432C125.251 62.794 124.95 62.612 124.747 62.2974C124.626 62.1117 124.56 61.8994 124.549 61.6606C124.537 61.6416 124.533 61.6208 124.533 61.5999C124.533 61.5999 124.537 61.598 124.549 61.5924C124.537 61.3611 124.582 61.1185 124.681 60.8646C124.791 60.6125 124.956 60.3832 125.177 60.1747C125.402 59.9681 125.666 59.8089 125.97 59.6971C126.184 59.6213 126.387 59.5796 126.581 59.5682C126.773 59.5587 126.938 59.5871 127.076 59.6516C127.318 59.7634 127.45 59.9359 127.473 60.1671C127.489 60.3339 127.44 60.5083 127.324 60.6902C127.208 60.8721 127.037 61.0446 126.812 61.2057C126.465 61.4388 126.139 61.5999 125.838 61.6909C125.534 61.7819 125.286 61.8331 125.094 61.8425C125.121 61.924 125.154 61.9942 125.193 62.0548C125.313 62.2368 125.491 62.341 125.722 62.3656C125.974 62.4073 126.205 62.3808 126.416 62.2898C126.63 62.1951 126.804 62.0908 126.936 61.979ZM125.177 61.0314C125.131 61.1375 125.103 61.2493 125.086 61.3649C125.239 61.3498 125.441 61.3043 125.689 61.2285C125.941 61.1526 126.209 61.0162 126.49 60.8191C126.659 60.6978 126.781 60.5841 126.853 60.4779C126.924 60.368 126.961 60.277 126.961 60.205C126.948 60.1898 126.936 60.1709 126.919 60.1444C126.907 60.1197 126.878 60.097 126.829 60.0761C126.796 60.0572 126.74 60.0458 126.663 60.0458C126.597 60.0458 126.519 60.0572 126.432 60.0761C126.35 60.0913 126.261 60.114 126.168 60.1444C125.93 60.2315 125.726 60.3528 125.557 60.5083C125.385 60.6599 125.259 60.8342 125.177 61.0314Z" fill="black"/>
<path d="M131.123 60.2336C131.156 60.2905 131.158 60.3511 131.131 60.4155C131.108 60.4819 131.065 60.5274 130.999 60.552C130.927 60.5785 130.858 60.5804 130.792 60.5596C130.726 60.535 130.679 60.4952 130.652 60.4383C130.646 60.4288 130.623 60.4004 130.586 60.3549C130.553 60.3056 130.495 60.2544 130.412 60.2033C130.33 60.154 130.225 60.1199 130.099 60.1047C129.872 60.0858 129.663 60.1256 129.471 60.226C129.283 60.3227 129.124 60.4516 128.992 60.6127C128.86 60.7757 128.769 60.9424 128.719 61.113C128.624 61.3916 128.616 61.6551 128.695 61.9015C128.771 62.1497 128.905 62.3014 129.099 62.3563C129.331 62.417 129.566 62.3923 129.81 62.2805C130.051 62.1706 130.218 62.0114 130.313 61.8029C130.34 61.7385 130.384 61.693 130.446 61.6664C130.512 61.6418 130.58 61.6418 130.652 61.6664C130.712 61.693 130.755 61.7385 130.784 61.8029C130.817 61.8636 130.821 61.9223 130.801 61.9773C130.679 62.2502 130.481 62.4681 130.206 62.6292C129.929 62.7866 129.644 62.8643 129.347 62.8643C129.209 62.8643 129.077 62.8472 128.951 62.8112C128.724 62.7468 128.54 62.6217 128.397 62.4397C128.259 62.254 128.17 62.0303 128.133 61.7726C128.1 61.5148 128.125 61.2495 128.207 60.9766C128.284 60.7396 128.414 60.5122 128.596 60.2942C128.777 60.0782 129 59.9057 129.265 59.7787C129.529 59.6536 129.82 59.6025 130.14 59.6271C130.375 59.648 130.563 59.7067 130.702 59.8015C130.844 59.8924 130.949 59.9872 131.015 60.082C131.081 60.173 131.117 60.2241 131.123 60.2336Z" fill="black"/>
<path d="M134.331 59.539C134.397 59.539 134.455 59.5617 134.504 59.6072C134.554 59.6527 134.579 59.7095 134.579 59.774C134.579 59.846 134.554 59.9028 134.504 59.9483C134.455 59.9938 134.397 60.0166 134.331 60.0166H133.364L132.869 62.6245C132.84 62.7609 132.753 62.8292 132.605 62.8292C132.588 62.8292 132.574 62.8254 132.563 62.814C132.491 62.8102 132.433 62.7799 132.39 62.723C132.351 62.6681 132.336 62.6093 132.349 62.5487L132.836 60.0166H131.936C131.87 60.0166 131.812 59.9938 131.762 59.9483C131.713 59.9028 131.688 59.846 131.688 59.774C131.688 59.7095 131.713 59.6527 131.762 59.6072C131.812 59.5617 131.87 59.539 131.936 59.539H132.935L133.546 56.3245C133.557 56.2601 133.592 56.2089 133.654 56.1729C133.713 56.1331 133.779 56.1198 133.852 56.135C133.922 56.1464 133.978 56.1786 134.017 56.2336C134.06 56.2847 134.077 56.3454 134.066 56.4155L133.464 59.539H134.331Z" fill="black"/>
<path d="M134.834 62.416C134.917 62.416 134.987 62.4444 135.049 62.4994C135.115 62.5506 135.148 62.6188 135.148 62.7041C135.148 62.7799 135.115 62.8481 135.049 62.9088C134.987 62.9694 134.917 62.9998 134.834 62.9998C134.739 62.9998 134.663 62.9694 134.603 62.9088C134.547 62.8481 134.52 62.7799 134.52 62.7041C134.52 62.6188 134.547 62.5506 134.603 62.4994C134.663 62.4444 134.739 62.416 134.834 62.416Z" fill="black"/>
<path d="M143.311 56.6199C143.36 56.6654 143.387 56.7222 143.393 56.7867C143.397 56.853 143.377 56.9136 143.327 56.9686C143.278 57.0198 143.214 57.0482 143.137 57.052C143.065 57.052 143.001 57.033 142.947 56.9914C142.941 56.9819 142.881 56.9421 142.766 56.8701C142.654 56.7999 142.512 56.7374 142.336 56.6805C142.159 56.6199 141.969 56.6009 141.766 56.6199C141.562 56.635 141.364 56.7317 141.172 56.908C140.874 57.1714 140.623 57.4765 140.42 57.8253C140.222 58.1702 140.061 58.5 139.941 58.8184C139.819 59.1368 139.739 59.3927 139.702 59.5841C139.53 60.3422 139.471 60.9639 139.52 61.4491C139.57 61.9305 139.714 62.2053 139.958 62.2754C140.078 62.3057 140.234 62.2527 140.429 62.1162C140.627 61.9798 140.841 61.7883 141.073 61.5401C141.308 61.288 141.548 60.998 141.791 60.6682C142.033 60.3403 142.256 60.0049 142.46 59.6599C142.53 59.5443 142.638 59.5083 142.782 59.5538C142.918 59.5993 142.976 59.6902 142.956 59.8267L142.427 62.6848C142.398 62.8175 142.311 62.8819 142.163 62.8819C142.15 62.8819 142.134 62.8819 142.113 62.8819C142.041 62.8724 141.983 62.8402 141.94 62.7834C141.901 62.7284 141.886 62.6677 141.899 62.6014L142.196 60.9942C142.031 61.2273 141.845 61.4604 141.643 61.6917C141.444 61.9191 141.238 62.1219 141.023 62.2982C140.813 62.4763 140.604 62.609 140.395 62.7C140.185 62.7872 139.987 62.7985 139.801 62.7379C139.537 62.6621 139.343 62.5161 139.223 62.2982C139.101 62.0764 139.025 61.8111 138.992 61.5021C138.963 61.1894 138.969 60.8577 139.008 60.509C139.045 60.1603 139.101 59.8191 139.173 59.4856C139.21 59.3339 139.268 59.1406 139.347 58.9018C139.429 58.6592 139.537 58.4014 139.669 58.1285C139.805 57.8518 139.968 57.5751 140.156 57.3022C140.342 57.0255 140.554 56.7772 140.792 56.5592C141.017 56.3526 141.25 56.2219 141.494 56.165C141.735 56.11 141.973 56.1025 142.204 56.1423C142.435 56.184 142.646 56.2522 142.84 56.347C143.032 56.4379 143.189 56.5289 143.311 56.6199Z" fill="black"/>
<path d="M146.758 59.8289C146.811 59.8706 146.844 59.9256 146.857 59.9957C146.867 60.062 146.851 60.1208 146.807 60.1701C146.768 60.2212 146.712 60.2516 146.642 60.261C146.57 60.2724 146.506 60.2573 146.452 60.2156C146.446 60.2156 146.394 60.1985 146.295 60.1625C146.2 60.1284 146.068 60.117 145.899 60.1322C145.734 60.1435 145.539 60.2194 145.321 60.3596C145.205 60.4316 145.091 60.5548 144.982 60.7311C144.877 60.9092 144.776 61.1101 144.676 61.3376C144.581 61.5612 144.497 61.7887 144.42 62.0199C144.342 62.2473 144.282 62.452 144.239 62.634C144.21 62.7553 144.127 62.8159 143.991 62.8159C143.968 62.8159 143.95 62.814 143.933 62.8083C143.871 62.8045 143.82 62.7742 143.776 62.7173C143.731 62.6624 143.718 62.6017 143.735 62.5354L144.206 59.7228C144.216 59.6583 144.249 59.6072 144.305 59.5712C144.365 59.5314 144.431 59.5143 144.503 59.5181C144.573 59.5333 144.629 59.5674 144.668 59.6166C144.712 59.6678 144.73 59.7266 144.726 59.791L144.635 60.352C144.761 60.1814 144.891 60.0526 145.023 59.9654C145.265 59.81 145.49 59.7133 145.701 59.6773C145.909 59.6375 146.091 59.6299 146.246 59.6546C146.405 59.6811 146.528 59.7152 146.617 59.7607C146.704 59.8062 146.751 59.8289 146.758 59.8289Z" fill="black"/>
<path d="M149.952 60.3868C149.979 60.7109 149.954 60.9971 149.878 61.2435C149.805 61.4861 149.713 61.6946 149.597 61.8652C149.481 62.0376 149.374 62.1741 149.275 62.2745C149.11 62.4375 148.936 62.5607 148.755 62.646C148.577 62.7332 148.41 62.7749 148.251 62.7749C147.904 62.7749 147.631 62.682 147.433 62.4944C147.202 62.2632 147.103 61.9069 147.136 61.4254C147.156 61.107 147.231 60.8322 147.359 60.5991C147.491 60.3622 147.648 60.1651 147.83 60.0078C148.015 59.8467 148.195 59.7273 148.366 59.6515C148.767 59.4752 149.13 59.4733 149.457 59.6439C149.758 59.8069 149.923 60.0533 149.952 60.3868ZM148.895 61.941C148.971 61.8652 149.054 61.759 149.143 61.6226C149.236 61.4861 149.312 61.3193 149.374 61.1222C149.434 60.9251 149.452 60.6939 149.432 60.4247C149.415 60.258 149.335 60.1367 149.192 60.0608C149.12 60.021 149.037 60.0002 148.944 60.0002C148.833 60.0002 148.717 60.0267 148.598 60.076C148.377 60.1727 148.17 60.3413 147.978 60.5839C147.79 60.8227 147.683 61.1127 147.656 61.4558C147.627 61.795 147.681 62.03 147.813 62.1608C147.912 62.2518 148.057 62.2973 148.251 62.2973C148.317 62.2973 148.408 62.2707 148.523 62.2139C148.643 62.1532 148.767 62.0623 148.895 61.941Z" fill="black"/>
<path d="M155.276 59.573C155.346 59.5787 155.402 59.6071 155.441 59.6564C155.485 59.7076 155.503 59.7663 155.499 59.8308C155.499 59.8421 155.483 59.9179 155.45 60.0582C155.421 60.2003 155.38 60.3823 155.326 60.604C155.27 60.822 155.198 61.0551 155.111 61.3015C155.022 61.5441 154.913 61.7791 154.781 62.0065C154.653 62.234 154.502 62.4235 154.327 62.5751C154.155 62.7268 153.957 62.8139 153.732 62.8329C153.55 62.8443 153.389 62.7874 153.253 62.6661C153.137 62.5505 153.049 62.3818 152.989 62.1582C152.933 61.9364 152.9 61.6995 152.89 61.4455C152.679 61.836 152.46 62.1582 152.229 62.4159C151.998 62.6737 151.77 62.831 151.552 62.886C151.496 62.9011 151.44 62.9087 151.386 62.9087C151.232 62.9087 151.099 62.8594 150.99 62.7571C150.862 62.6358 150.777 62.469 150.734 62.2567C150.689 62.0445 150.668 61.8132 150.668 61.5593C150.672 61.3072 150.693 61.0589 150.726 60.8163C150.759 60.5699 150.794 60.3501 150.833 60.1567C150.87 59.9653 150.899 59.8308 150.916 59.7549C150.932 59.6905 150.969 59.6393 151.031 59.6033C151.097 59.5692 151.166 59.5578 151.238 59.573C151.308 59.5844 151.364 59.6185 151.403 59.6791C151.44 59.736 151.448 59.7966 151.428 59.8611C151.378 60.0734 151.331 60.3122 151.287 60.5737C151.248 60.8372 151.221 61.0968 151.205 61.3546C151.188 61.6085 151.19 61.8303 151.213 62.0217C151.234 62.215 151.283 62.3477 151.362 62.4235C151.378 62.4292 151.397 62.4292 151.42 62.4235C151.552 62.3932 151.713 62.2605 151.907 62.0217C152.099 61.7848 152.291 61.474 152.485 61.0892C152.683 60.7007 152.842 60.2553 152.964 59.7549C152.974 59.6905 153.009 59.6393 153.071 59.6033C153.131 59.5692 153.197 59.5578 153.269 59.573C153.329 59.5787 153.381 59.6071 153.426 59.6564C153.47 59.7076 153.486 59.7663 153.476 59.8308C153.447 60.0544 153.426 60.2932 153.41 60.551C153.397 60.8049 153.395 61.0551 153.402 61.3015C153.412 61.5441 153.435 61.7602 153.468 61.9459C153.501 62.1278 153.552 62.2548 153.625 62.325C153.645 62.3458 153.668 62.3534 153.691 62.3477C153.839 62.3325 153.982 62.2416 154.12 62.0748C154.256 61.908 154.384 61.6957 154.5 61.438C154.616 61.1764 154.715 60.8978 154.797 60.604C154.884 60.3122 154.946 60.0354 154.979 59.7777C154.983 59.7132 155.016 59.6602 155.078 59.6185C155.138 59.573 155.204 59.5578 155.276 59.573Z" fill="black"/>
<path d="M155.961 62.416C156.044 62.416 156.114 62.4444 156.176 62.4994C156.242 62.5506 156.275 62.6188 156.275 62.7041C156.275 62.7799 156.242 62.8481 156.176 62.9088C156.114 62.9694 156.044 62.9998 155.961 62.9998C155.866 62.9998 155.79 62.9694 155.73 62.9088C155.674 62.8481 155.647 62.7799 155.647 62.7041C155.647 62.6188 155.674 62.5506 155.73 62.4994C155.79 62.4444 155.866 62.416 155.961 62.416Z" fill="black"/>
<path d="M26.7811 33.0639V46.4902H21.413V24.8535H26.7811L36.1464 38.2798H36.2042V24.8535H41.5806V46.4902H36.2042L26.8389 33.0639H26.7811Z" fill="black"/>
<path d="M58.4839 24.8535V29.1824H50.3739V33.4809H58.1453V37.8097H50.3739V42.1613H58.4839V46.4902H45.0058V24.8535H58.4839Z" fill="black"/>
<path d="M83.6201 46.4902H76.6745L71.1082 39.1213L65.5337 46.4902H58.8772L67.7965 34.8455L60.3638 24.8535H66.7642L71.1082 30.7592L75.4523 24.8535H82.1335L74.4199 34.8455L83.6201 46.4902Z" fill="black"/>
<path d="M82.8792 29.1804V24.8516H99.446V29.1804H93.8466V46.4882H88.4785V29.1804H82.8792Z" fill="black"/>
<path d="M122.687 34.3751V39.0679C122.076 41.6417 120.74 43.5863 118.681 44.9054C116.627 46.2245 114.333 46.8841 111.802 46.8841C108.618 46.8841 105.909 45.7924 103.676 43.609C101.439 41.4218 100.323 38.7798 100.323 35.6867C100.323 32.5386 101.415 29.8795 103.601 27.7113C105.792 25.5431 108.525 24.459 111.802 24.459C115.628 24.459 118.657 25.6928 120.886 28.1586L117.377 31.699C116.115 29.8454 114.362 28.9167 112.116 28.9167C110.458 28.9167 109.044 29.5801 107.871 30.903C106.702 32.2221 106.12 33.8179 106.12 35.6867C106.12 37.5213 106.702 39.0906 107.871 40.3946C109.044 41.6948 110.458 42.3429 112.116 42.3429C113.487 42.3429 114.68 41.9639 115.7 41.2058C116.718 40.4477 117.228 39.4375 117.228 38.1733H111.802V34.3751H122.687Z" fill="black"/>
<path d="M138.538 24.8535V29.1824H130.428V33.4809H138.199V37.8097H130.428V42.1613H138.538V46.4902H125.06V24.8535H138.538Z" fill="black"/>
<path d="M149.517 33.062V46.4882H144.149V24.8516H149.517L158.883 38.2778H158.941V24.8516H164.317V46.4882H158.941L149.575 33.062H149.517Z" fill="black"/>
</svg>
