<svg width="46" height="71" viewBox="0 0 46 71" fill="none" xmlns="http://www.w3.org/2000/svg">
<path fill-rule="evenodd" clip-rule="evenodd" d="M21.3473 8.87825C22.6139 9.24242 23.7707 9.27237 24.2391 9.00811C25.4136 8.3454 24.2949 3.70649 22.8321 2.1515C21.3691 0.596496 16.139 1.14934 16.8503 4.81627C17.0973 6.08895 17.9214 7.06297 18.9412 7.76465L19.285 14.6141L23.3277 13.531L21.3473 8.87825Z" fill="#B28B67"/>
<path fill-rule="evenodd" clip-rule="evenodd" d="M20.3388 4.30796C20.5491 3.6944 20.7786 3.20791 21.1537 2.86064C22.9386 2.41244 23.0612 2.03857 22.774 0.966381C22.432 0.838198 21.3266 0.764277 20.1662 0.971066C19.5433 0.960793 18.8662 1.17557 18.2796 1.62829C17.5264 2.07763 16.9695 2.75989 16.9141 3.77265C16.3203 5.96878 17.6876 7.72287 18.9969 8.09639C19.2021 7.66067 19.3719 7.24618 19.5175 6.85393C19.2805 6.72105 19.0953 6.49656 19.0195 6.21365C18.8702 5.65635 19.2016 5.08332 19.7598 4.93375C19.8009 4.92275 19.8419 4.91435 19.883 4.90844C20.0949 5.59849 20.8299 7.92818 21.3208 8.67427C21.8995 9.55395 23.831 9.29037 24.4825 9.11585C25.0452 8.96508 24.8834 8.43822 24.7675 8.06063C24.7509 8.00626 24.7351 7.95497 24.7226 7.90836C24.6965 7.81096 24.5698 7.84521 24.4265 7.8839C24.2403 7.93416 24.0265 7.99191 23.9694 7.77867C23.9072 7.54621 24.1811 7.2817 24.4263 7.04499C24.5793 6.89733 24.721 6.76048 24.7628 6.649C24.8949 6.29731 24.8594 5.8802 24.5408 5.96557C24.3667 6.01224 24.1547 6.17648 23.8995 6.37408C23.5143 6.67241 23.031 7.04673 22.4318 7.20728C21.4421 7.47248 20.3524 4.34708 20.3388 4.30796Z" fill="#191847"/>
<path fill-rule="evenodd" clip-rule="evenodd" d="M21.2182 28.5684L29.7777 50.1981L35.5184 68.4841H37.7855L29.009 28.5684H21.2182Z" fill="#997659"/>
<path fill-rule="evenodd" clip-rule="evenodd" d="M19.4947 28.5684C19.4036 36.1692 18.0742 46.4025 17.8618 46.8762C17.6495 47.3501 3.1994 58.9266 3.1994 58.9266L4.76077 60.5947C4.76077 60.5947 21.8105 50.6694 22.5995 49.3455C23.3886 48.0217 25.9573 35.8399 28.0195 28.5684H19.4947Z" fill="#B28B67"/>
<path fill-rule="evenodd" clip-rule="evenodd" d="M3.44217 58.5872C3.39003 58.4062 3.19929 58.2982 3.02191 58.3624C2.6719 58.489 2.13907 58.7015 1.90641 58.8965C1.54504 59.1992 0.95282 59.9001 0.95282 59.9001C1.30457 60.3187 7.27527 67.423 7.27527 67.423C7.27527 67.423 8.49269 66.9027 8.03913 66.2062C7.58557 65.5095 7.29676 65.0393 7.29676 65.0393L5.91567 60.2218C5.89068 60.1347 5.79855 60.0853 5.71201 60.1126L4.96407 60.3495C4.96407 60.3495 4.1992 59.9936 3.89189 59.628C3.69955 59.399 3.53692 58.9163 3.44217 58.5872Z" fill="#E4E4E4"/>
<path fill-rule="evenodd" clip-rule="evenodd" d="M35.047 67.4331C34.8749 67.3566 34.6699 67.4331 34.6052 67.61C34.4773 67.9591 34.2978 68.5033 34.2978 68.8067C34.2978 69.2776 34.455 70.1811 34.455 70.1811C35.0023 70.1811 44.291 70.1811 44.291 70.1811C44.291 70.1811 44.6743 68.9157 43.8483 68.8147C43.0222 68.7138 42.4759 68.6325 42.4759 68.6325L37.8915 66.5921C37.8087 66.5552 37.7118 66.5939 37.6772 66.6776L37.3782 67.402C37.3782 67.402 36.6134 67.7583 36.1353 67.7583C35.8358 67.7583 35.3605 67.5722 35.047 67.4331Z" fill="#E4E4E4"/>
<path fill-rule="evenodd" clip-rule="evenodd" d="M26.9728 66.6007L37.751 65.4329L29.7632 28.5684H20.1094L26.9728 66.6007Z" fill="#E0EAEB"/>
<path fill-rule="evenodd" clip-rule="evenodd" d="M5.42883 56.2353L12.4986 64.5901C12.4986 64.5901 23.6685 52.4103 25.5227 48.6954C27.3769 44.9805 28.8563 28.5684 28.8563 28.5684H17.9882C17.9882 28.5684 17.1799 43.0069 16.8986 43.6788C16.6173 44.3507 5.42883 56.2353 5.42883 56.2353Z" fill="#536B77"/>
<path fill-rule="evenodd" clip-rule="evenodd" d="M40.7637 27.6695L34.5773 24.6191L33.8933 27.8215L39.7142 29.1109C41.5657 30.6399 42.556 31.2387 42.6848 30.9075C42.7934 30.6283 42.6321 30.4132 42.4835 30.2152C42.3677 30.0609 42.2597 29.917 42.293 29.7609C42.3692 29.4046 43.4059 29.2578 44.3959 29.1607C45.3856 29.0634 45.0245 28.6797 44.7512 28.507C43.6494 28.087 42.3202 27.8078 40.7637 27.6695ZM13.2824 39.8124C13.6059 38.7043 13.5679 28.4666 13.5679 28.4666L17.1593 27.8478C17.1593 27.8478 15.7244 39.1474 15.5751 39.8497C15.3811 40.7619 16.1839 41.896 16.7281 42.665C16.8123 42.784 16.8904 42.8943 16.9576 42.9937C16.4508 43.3363 16.1343 43.0859 15.8005 42.8219C15.4236 42.5237 15.0246 42.2082 14.3052 42.7104C14.0271 42.9045 13.77 43.1212 13.5186 43.3331C12.6508 44.0646 11.8534 44.7368 10.5138 44.2055C10.3014 44.1213 10.0132 43.7139 10.4591 43.2772C11.5702 42.1892 13.1242 40.3542 13.2824 39.8124Z" fill="#B28B67"/>
<path fill-rule="evenodd" clip-rule="evenodd" d="M21.1158 11.6314L22.5561 11.1152C28.9042 14.896 32.7772 23.6268 40.384 27.2723L39.1131 29.5708C27.1408 30.1882 22.273 19.5643 21.1158 11.6314Z" fill="#E87613"/>
<path fill-rule="evenodd" clip-rule="evenodd" d="M17.9277 31.4072C17.9277 31.4072 26.8596 29.8322 31.068 29.0903C31.6685 28.9843 31.4026 28.1387 31.2389 27.7171C29.3481 22.8526 24.4795 18.1078 23.2141 10.9316L19.3192 11.0065C17.0719 16.5934 17.0806 22.9825 17.9277 31.4072Z" fill="#DDE3E9"/>
<path fill-rule="evenodd" clip-rule="evenodd" d="M17.0845 35.2682C16.7437 36.7885 16.3825 38.1262 16.0041 39.1717L13.1861 39.6686C11.157 29.9343 13.5405 21.7486 15.846 16.6597C15.1476 16.7322 14.4744 16.5538 13.9557 15.9143C12.1303 13.6628 12.3884 12.2005 13.7892 11.4877C14.5595 11.0958 15.3551 11.1304 16.3075 11.1716C17.0868 11.2054 17.9709 11.2439 19.0323 11.0568C19.0326 11.0568 19.033 11.0566 19.0333 11.0566C19.1362 11.0384 19.231 11.0289 19.3183 11.027L20.5885 10.877C20.5885 10.877 28.7418 27.2556 27.4707 33.4369L17.0845 35.2682Z" fill="#FF7A00"/>
<path fill-rule="evenodd" clip-rule="evenodd" d="M17.085 35.2679C17.5323 33.2731 17.9445 30.9643 18.3141 28.5898C19.0337 31.0062 19.9444 33.3998 20.9668 34.5832L17.085 35.2679Z" fill="black" fill-opacity="0.1"/>
</svg>
